<svg width="731" height="731" viewBox="0 0 731 731" fill="none" xmlns="http://www.w3.org/2000/svg">
<path d="M365.5 508.246C444.336 508.246 508.246 444.336 508.246 365.5C508.246 286.664 444.336 222.754 365.5 222.754C286.664 222.754 222.754 286.664 222.754 365.5C222.754 444.336 286.664 508.246 365.5 508.246Z" stroke="#ECECEC" stroke-opacity="0.6" stroke-width="3" stroke-linecap="round" stroke-linejoin="round"/>
<path d="M365.5 185.654V3.3383" stroke="#ECECEC" stroke-opacity="0.6" stroke-width="3" stroke-linecap="round" stroke-linejoin="round"/>
<path d="M365.5 727.662V545.346" stroke="#ECECEC" stroke-opacity="0.6" stroke-width="3" stroke-linecap="round" stroke-linejoin="round"/>
<path d="M185.654 365.5H3.33832" stroke="#ECECEC" stroke-opacity="0.6" stroke-width="3" stroke-linecap="round" stroke-linejoin="round"/>
<path d="M727.662 365.5H545.346" stroke="#ECECEC" stroke-opacity="0.6" stroke-width="3" stroke-linecap="round" stroke-linejoin="round"/>
<path d="M238.333 238.333L147.286 147.286" stroke="#ECECEC" stroke-opacity="0.6" stroke-width="3" stroke-linecap="round" stroke-linejoin="round"/>
<path d="M583.714 583.714L492.667 492.667" stroke="#ECECEC" stroke-opacity="0.6" stroke-width="3" stroke-linecap="round" stroke-linejoin="round"/>
<path d="M238.333 492.667L147.286 583.714" stroke="#ECECEC" stroke-opacity="0.6" stroke-width="3" stroke-linecap="round" stroke-linejoin="round"/>
<path d="M583.714 147.286L492.667 238.333" stroke="#ECECEC" stroke-opacity="0.6" stroke-width="3" stroke-linecap="round" stroke-linejoin="round"/>
<path d="M298.378 198.651L250.306 79.2069" stroke="#ECECEC" stroke-opacity="0.6" stroke-width="3" stroke-linecap="round" stroke-linejoin="round"/>
<path d="M480.716 651.793L432.644 532.349" stroke="#ECECEC" stroke-opacity="0.6" stroke-width="3" stroke-linecap="round" stroke-linejoin="round"/>
<path d="M198.651 432.644L79.2069 480.716" stroke="#ECECEC" stroke-opacity="0.6" stroke-width="3" stroke-linecap="round" stroke-linejoin="round"/>
<path d="M651.793 250.306L532.349 298.378" stroke="#ECECEC" stroke-opacity="0.6" stroke-width="3" stroke-linecap="round" stroke-linejoin="round"/>
<path d="M200.054 294.995L81.6104 244.52" stroke="#ECECEC" stroke-opacity="0.6" stroke-width="3" stroke-linecap="round" stroke-linejoin="round"/>
<path d="M649.412 486.48L530.946 436.005" stroke="#ECECEC" stroke-opacity="0.6" stroke-width="3" stroke-linecap="round" stroke-linejoin="round"/>
<path d="M294.995 530.946L244.52 649.412" stroke="#ECECEC" stroke-opacity="0.6" stroke-width="3" stroke-linecap="round" stroke-linejoin="round"/>
<path d="M486.48 81.6105L436.005 200.054" stroke="#ECECEC" stroke-opacity="0.6" stroke-width="3" stroke-linecap="round" stroke-linejoin="round"/>
<path d="M218.659 261.679L163.622 222.754" stroke="#ECECEC" stroke-opacity="0.6" stroke-width="3" stroke-linecap="round" stroke-linejoin="round"/>
<path d="M567.379 508.268L512.341 469.344" stroke="#ECECEC" stroke-opacity="0.6" stroke-width="3" stroke-linecap="round" stroke-linejoin="round"/>
<path d="M261.679 512.341L222.754 567.401" stroke="#ECECEC" stroke-opacity="0.6" stroke-width="3" stroke-linecap="round" stroke-linejoin="round"/>
<path d="M508.268 163.622L469.344 218.659" stroke="#ECECEC" stroke-opacity="0.6" stroke-width="3" stroke-linecap="round" stroke-linejoin="round"/>
<path d="M189.416 328.979L123.406 315.292" stroke="#ECECEC" stroke-opacity="0.6" stroke-width="3" stroke-linecap="round" stroke-linejoin="round"/>
<path d="M607.616 415.708L541.607 402.021" stroke="#ECECEC" stroke-opacity="0.6" stroke-width="3" stroke-linecap="round" stroke-linejoin="round"/>
<path d="M328.979 541.607L315.292 607.616" stroke="#ECECEC" stroke-opacity="0.6" stroke-width="3" stroke-linecap="round" stroke-linejoin="round"/>
<path d="M415.708 123.406L402.021 189.415" stroke="#ECECEC" stroke-opacity="0.6" stroke-width="3" stroke-linecap="round" stroke-linejoin="round"/>
<path d="M188.258 395.923L121.804 407.318" stroke="#ECECEC" stroke-opacity="0.6" stroke-width="3" stroke-linecap="round" stroke-linejoin="round"/>
<path d="M609.196 323.682L542.764 335.099" stroke="#ECECEC" stroke-opacity="0.6" stroke-width="3" stroke-linecap="round" stroke-linejoin="round"/>
<path d="M395.923 542.764L407.318 609.196" stroke="#ECECEC" stroke-opacity="0.6" stroke-width="3" stroke-linecap="round" stroke-linejoin="round"/>
<path d="M323.682 121.804L335.099 188.258" stroke="#ECECEC" stroke-opacity="0.6" stroke-width="3" stroke-linecap="round" stroke-linejoin="round"/>
<path d="M267.176 214.92L230.299 158.481" stroke="#ECECEC" stroke-opacity="0.6" stroke-width="3" stroke-linecap="round" stroke-linejoin="round"/>
<path d="M500.701 572.52L463.846 516.08" stroke="#ECECEC" stroke-opacity="0.6" stroke-width="3" stroke-linecap="round" stroke-linejoin="round"/>
<path d="M214.92 463.846L158.481 500.701" stroke="#ECECEC" stroke-opacity="0.6" stroke-width="3" stroke-linecap="round" stroke-linejoin="round"/>
<path d="M572.52 230.299L516.08 267.176" stroke="#ECECEC" stroke-opacity="0.6" stroke-width="3" stroke-linecap="round" stroke-linejoin="round"/>
<path d="M273.652 365.5C273.669 343.023 279.86 320.983 291.549 301.785C303.238 282.586 319.976 266.968 339.937 256.634C359.897 246.3 382.313 241.648 404.737 243.185C427.161 244.722 448.732 252.39 467.096 265.351C447.207 245.192 421.772 231.404 394.025 225.74C366.279 220.075 337.475 222.79 311.276 233.539C285.076 244.288 262.666 262.586 246.893 286.105C231.121 309.625 222.699 337.304 222.699 365.622C222.699 393.941 231.121 421.62 246.893 445.14C262.666 468.659 285.076 486.957 311.276 497.706C337.475 508.455 366.279 511.17 394.025 505.505C421.772 499.841 447.207 486.052 467.096 465.894C448.721 478.853 427.139 486.515 404.706 488.043C382.273 489.57 359.851 484.905 339.889 474.557C319.927 464.208 303.192 448.574 291.511 429.362C279.83 410.149 273.652 388.096 273.652 365.611V365.5Z" stroke="#ECECEC" stroke-opacity="0.6" stroke-width="3" stroke-linecap="round" stroke-linejoin="round"/>
</svg>
