<svg width="147" height="124" viewBox="0 0 147 124" fill="none" xmlns="http://www.w3.org/2000/svg">
<g clip-path="url(#clip0_2_5418)">
<path d="M20.0146 99.4821C19.5148 102.122 19.6854 104.847 20.5105 107.407C21.3357 109.966 22.7887 112.277 24.7353 114.125C26.682 115.974 29.0593 117.301 31.6474 117.982C34.2355 118.664 36.951 118.679 39.5425 118.026C41.5728 117.517 43.4816 116.609 45.1591 115.354C46.8366 114.098 48.2495 112.521 49.3166 110.713C50.3836 108.904 51.0837 106.901 51.3764 104.817C51.6692 102.733 51.5489 100.61 51.0224 98.5706C49.3002 91.9511 48.0288 85.6135 49.3175 85.1746C56.5263 82.6866 68.645 78.4243 71.9342 77.595L87.5217 73.665C90.4771 72.9207 93.0574 71.1161 94.778 68.5904L113.696 40.8694L126.366 16.011C126.366 16.011 125.778 12.3843 120.646 16.2662C115.515 20.1481 111.57 28.6858 111.57 28.6858C111.57 28.6858 110.131 20.3322 109.186 19.2293C108.242 18.1264 100.703 8.97057 98.3116 8.39332C95.9205 7.81608 95.5086 14.2696 97.9403 17.9679C100.372 21.6662 103.246 25.7961 103.246 25.7961L104.046 37.8779L100.848 32.4351C100.848 32.4351 102.384 30.8611 102.029 29.4553C101.675 28.0494 100.48 26.7212 98.1353 26.776C97.618 26.7566 97.1003 26.795 96.5916 26.8904C95.9809 26.1593 92.8989 22.5512 90.8612 21.7105C88.5928 20.7738 81.0131 16.2144 79.6783 16.4437C78.3435 16.673 77.872 19.0581 80.7128 23.1897C82.6645 25.8353 85.1884 28.0009 88.0932 29.5225L85.7766 30.5357C85.7766 30.5357 76.6304 23.5685 74.8072 24.0282C72.9841 24.4878 72.6046 27.6075 74.9284 30.0322C77.2521 32.4569 78.4704 33.8796 78.4704 33.8796C78.4704 33.8796 64.0028 39.7935 60.0746 40.7839C56.1464 41.7743 43.6734 49.2304 40.9332 52.3954C38.1929 55.5604 29.2511 64.6004 27.4067 67.9888C25.5624 71.3772 22.5702 85.9909 20.0146 99.4821ZM91.8538 38.994L93.514 38.5754C93.514 38.5754 94.4198 40.7407 95.0481 42.0172C95.6765 43.2936 93.2839 44.5607 93.2839 44.5607C93.2839 44.5607 93.3297 42.3901 93.2969 41.9692C92.8746 40.9499 92.3927 39.9564 91.8538 38.994ZM74.6302 47.165L84.4167 42.5587L85.4806 45.5625L84.2198 48.6228C79.4629 49.3393 74.6302 47.165 74.6302 47.165Z" stroke="#ECECEC" stroke-opacity="0.7" stroke-width="3" stroke-linecap="round" stroke-linejoin="round"/>
<path d="M78.521 33.9206L82.6962 37.7157L85.4809 45.5893L81.6955 54.7842C81.6955 54.7842 53.5329 58.3913 44.2796 69.3939" stroke="#ECECEC" stroke-opacity="0.7" stroke-width="3" stroke-linecap="round" stroke-linejoin="round"/>
<path d="M91.0918 62.7411C91.0918 62.7411 93.7848 44.1127 93.2476 41.9819C92.7103 39.851 87.7042 31.9407 85.8135 30.5467" stroke="#ECECEC" stroke-opacity="0.7" stroke-width="3" stroke-linecap="round" stroke-linejoin="round"/>
<path d="M96.7099 27.0416L100.863 32.465L104.061 37.9078L104.973 39.4143C105.232 39.8368 105.398 40.3096 105.462 40.8012C105.525 41.2929 105.483 41.7921 105.339 42.2656L101.531 54.9393" stroke="#ECECEC" stroke-opacity="0.7" stroke-width="3" stroke-linecap="round" stroke-linejoin="round"/>
<path d="M111.59 28.681L113.418 35.931" stroke="#ECECEC" stroke-opacity="0.7" stroke-width="3" stroke-linecap="round" stroke-linejoin="round"/>
<path d="M88.1299 29.5335L90.6676 31.7232L93.5209 38.5738" stroke="#ECECEC" stroke-opacity="0.7" stroke-width="3" stroke-linecap="round" stroke-linejoin="round"/>
</g>
<defs>
<clipPath id="clip0_2_5418">
<rect width="127" height="94" fill="white" transform="translate(0.436523 31.9501) rotate(-14.1506)"/>
</clipPath>
</defs>
</svg>
