<svg width="84" height="83" viewBox="0 0 84 83" fill="none" xmlns="http://www.w3.org/2000/svg">
<path d="M41.9636 82.5424C64.5532 82.5424 82.8657 64.208 82.8657 41.5913C82.8657 18.9747 64.5532 0.640259 41.9636 0.640259C19.374 0.640259 1.06152 18.9747 1.06152 41.5913C1.06152 64.208 19.374 82.5424 41.9636 82.5424Z" stroke="#ECECEC" stroke-width="0.62" stroke-linecap="round" stroke-linejoin="round"/>
<path d="M45.7664 56.2123C46.5273 54.4659 46.992 52.6047 47.1415 50.7053C47.5265 45.5219 48.0766 40.3798 48.9154 35.2308L50.3523 26.399L55.4677 25.0636L50.8955 23.0949L34.6144 16.0735L29.5403 22.7438C29.1106 22.2828 28.6513 21.8505 28.1652 21.4496C27.2808 20.7211 26.2968 20.1231 25.2432 19.6737C24.6849 19.4439 24.1042 19.2732 23.5105 19.1643C22.9269 19.064 22.3323 19.0455 21.7436 19.1092C20.7268 19.2152 19.7669 19.6309 18.9934 20.3001C17.8756 21.3449 17.0546 22.668 16.6145 24.1343C15.8456 26.9292 15.6353 29.8486 15.9957 32.7251C16.1551 34.4898 16.5126 36.2309 17.0614 37.9154C15.826 39.3068 14.8209 40.887 14.0843 42.5963C13.9537 42.8923 13.8368 43.1952 13.7268 43.4981L13.658 43.5876C12.1031 47.74 12.2052 52.3325 13.9431 56.4115C15.681 60.4906 18.9212 63.7429 22.9909 65.4932C27.0607 67.2435 31.6474 67.3574 35.7988 65.8112C39.9502 64.265 43.3474 61.1776 45.2851 57.1898C45.4708 56.8731 45.6289 56.5496 45.7664 56.2123ZM19.2753 35.5612C18.8834 32.4635 18.4915 27.8239 19.6878 25.8208C20.3753 24.6987 21.4892 23.2945 22.9536 23.4803C24.2737 23.6524 25.2982 24.8915 25.8895 25.9929C26.0622 26.303 26.2072 26.6278 26.3226 26.9635C24.0468 29.9304 22.0736 32.3121 19.2753 35.5612Z" stroke="#ECECEC" stroke-width="0.62" stroke-linecap="round" stroke-linejoin="round"/>
<path d="M26.3223 26.9497C26.3223 26.9497 38.2993 33.8334 48.7844 36.6213" stroke="#ECECEC" stroke-width="0.62" stroke-linecap="round" stroke-linejoin="round"/>
<path d="M17.082 37.9017C17.082 37.9017 29.7673 48.4681 47.0728 50.8086" stroke="#ECECEC" stroke-width="0.62" stroke-linecap="round" stroke-linejoin="round"/>
<path d="M53.5418 25.5317L33.8574 17.0579" stroke="#ECECEC" stroke-width="0.62" stroke-linecap="round" stroke-linejoin="round"/>
<path d="M43.7031 17.0579C43.7031 17.0579 51.8505 3.33873 66.289 8.67359" stroke="#ECECEC" stroke-width="0.62" stroke-linecap="round" stroke-linejoin="round"/>
<path d="M57.2754 25.5317C57.2754 25.5317 82.6252 32.5393 69.0599 72.265" stroke="#ECECEC" stroke-width="0.62" stroke-linecap="round" stroke-linejoin="round"/>
<path d="M50.668 37.9017C50.668 37.9017 65.4227 48.0001 53.5419 80.8697" stroke="#ECECEC" stroke-width="0.62" stroke-linecap="round" stroke-linejoin="round"/>
<path d="M38.3748 73.0154C38.93 72.9291 39.4434 72.6686 39.8412 72.2715C40.2391 71.8745 40.5008 71.3612 40.5887 70.8057L40.7125 69.9797L40.8432 70.8057C40.9297 71.3607 41.1901 71.8737 41.5868 72.2709C41.9834 72.668 42.4959 72.9287 43.0502 73.0154L43.8752 73.1462L43.0502 73.277C42.4963 73.3646 41.9844 73.6257 41.5879 74.0226C41.1914 74.4196 40.9307 74.9321 40.8432 75.4866L40.7125 76.3127L40.5887 75.4866C40.4998 74.9315 40.2378 74.4189 39.8401 74.022C39.4424 73.6251 38.9295 73.3643 38.3748 73.277L37.5498 73.1462L38.3748 73.0154Z" stroke="#ECECEC" stroke-width="0.62" stroke-linecap="round" stroke-linejoin="round"/>
<path d="M29.7255 9.65107C30.2797 9.56442 30.7922 9.3037 31.1889 8.90654C31.5855 8.50939 31.8459 7.99633 31.9325 7.44139L32.0631 6.61536L32.1937 7.44139C32.2803 7.99633 32.5407 8.50939 32.9373 8.90654C33.334 9.3037 33.8465 9.56442 34.4008 9.65107L35.2258 9.78184L34.4008 9.91263C33.8469 10.0003 33.335 10.2613 32.9385 10.6583C32.542 11.0553 32.2813 11.5678 32.1937 12.1223L32.0631 12.9483L31.9325 12.1223C31.8449 11.5678 31.5842 11.0553 31.1877 10.6583C30.7912 10.2613 30.2793 10.0003 29.7255 9.91263L28.9004 9.78184L29.7255 9.65107Z" stroke="#ECECEC" stroke-width="0.62" stroke-linecap="round" stroke-linejoin="round"/>
<path d="M6.84395 35.4649C7.20887 35.4066 7.54593 35.2339 7.80661 34.9716C8.0673 34.7094 8.23817 34.3711 8.29466 34.0055L8.38404 33.4686L8.46654 34.0055C8.52404 34.3707 8.69526 34.7084 8.95577 34.9705C9.21627 35.2325 9.55277 35.4056 9.91728 35.4649L10.4604 35.5475L9.91728 35.6369C9.55333 35.6948 9.21699 35.8665 8.95642 36.1274C8.69584 36.3883 8.52437 36.725 8.46654 37.0894L8.38404 37.6332L8.29466 37.0894C8.23784 36.7246 8.06672 36.3873 7.80596 36.1262C7.5452 35.8652 7.20831 35.6938 6.84395 35.6369L6.30078 35.5475L6.84395 35.4649Z" stroke="#ECECEC" stroke-width="0.62" stroke-linecap="round" stroke-linejoin="round"/>
<path d="M49.6641 19.5154C49.6641 19.5154 63.5112 6.80807 80.1979 26.9566" stroke="#ECECEC" stroke-width="0.62" stroke-linecap="round" stroke-linejoin="round"/>
<path d="M52.9717 30.0474C52.9717 30.0474 72.8074 32.5943 62.8036 76.3126" stroke="#ECECEC" stroke-width="0.62" stroke-linecap="round" stroke-linejoin="round"/>
<path d="M82.4323 47.5251C82.4323 47.5251 78.2451 19.8596 54.1123 21.8696" stroke="#ECECEC" stroke-width="0.62" stroke-linecap="round" stroke-linejoin="round"/>
</svg>
