<svg width="104" height="104" viewBox="0 0 104 104" fill="none" xmlns="http://www.w3.org/2000/svg">
<path d="M60.1514 59.9912C59.787 63.7841 58.9413 68.4926 56.9681 70.5301C53.4204 74.1854 47.1912 73.9238 42.9628 74.4883C39.807 74.9082 27.5893 78.1986 24.6466 77.3312C23.8305 77.0965 23.1137 76.6006 22.6059 75.9194C22.098 75.2381 21.8271 74.409 21.8345 73.559C20.3701 73.0014 20.0538 70.9432 19.9919 69.594C19.9158 68.7403 20.0131 67.88 20.2777 67.0649C20.5424 66.2498 20.9691 65.4968 21.532 64.8511C23.0171 63.1715 24.5641 61.5332 26.0698 59.8673C29.4438 56.0878 32.3693 51.9299 34.7879 47.4767C35.4971 46.1458 36.3502 44.8969 37.3318 43.7526C38.5144 42.3758 40.1232 40.8752 41.849 40.2213C41.849 40.2213 48.1606 24.7605 60.4127 22.2548C72.6647 19.7492 86.4088 25.2974 90.6028 38.7757C94.7968 52.2539 88.3683 66.1246 74.363 67.2535C60.3577 68.3824 59.0101 56.2396 59.0101 56.2396C59.0101 56.2396 62.9291 61.6571 70.5058 59.8948C78.0826 58.1326 82.4898 51.2765 78.6326 44.2C74.7755 37.1236 62.2622 35.6643 58.4738 45.3496C58.4738 45.3496 62.8741 39.7945 67.6732 41.1506C67.6732 41.1506 68.0101 46.9053 64.8336 49.9548C63.272 51.3884 61.798 52.9147 60.4196 54.5256C60.4196 54.5256 60.4196 55.7922 60.3233 57.637" stroke="#ECECEC" stroke-width="0.62" stroke-linecap="round" stroke-linejoin="round"/>
<path d="M20.0052 68.3342C20.0052 68.3342 24.1923 64.383 25.5605 65.5808C26.9287 66.7785 19.957 69.1878 19.957 69.1878" stroke="#ECECEC" stroke-width="0.62" stroke-linecap="round" stroke-linejoin="round"/>
<path d="M21.834 73.559C21.834 73.559 27.3343 72.9119 29.1426 71.9482C30.9508 70.9845 31.2052 70.124 31.2052 70.124" stroke="#ECECEC" stroke-width="0.62" stroke-linecap="round" stroke-linejoin="round"/>
<path d="M67.6732 41.1161C67.6732 41.1161 61.0796 45.4322 59.9108 47.8208C58.742 50.2095 58.962 50.2577 58.962 50.2577C58.962 50.2577 58.0132 47.2289 58.4876 45.3152C58.4876 45.3152 56.0193 45.6387 51.6534 43.5048C47.2875 41.3708 41.3402 44.8264 41.3402 44.8264C40.7352 43.7595 41.849 40.2557 41.849 40.2557" stroke="#ECECEC" stroke-width="0.62" stroke-linecap="round" stroke-linejoin="round"/>
<path d="M50.9791 51.1801C50.5241 50.7976 49.9967 50.5108 49.4285 50.337C48.8603 50.1631 48.2629 50.1057 47.672 50.1682C46.5926 50.299 45.2038 51.4004 44.1724 52.3641C42.2198 54.1883 40.2603 56.0124 38.2527 57.7747L32.0098 63.2816" stroke="#ECECEC" stroke-width="0.62" stroke-linecap="round" stroke-linejoin="round"/>
<path d="M44.1035 52.4605C44.4481 52.3451 44.8153 52.3143 45.1742 52.3706C45.5331 52.4269 45.8733 52.5687 46.1662 52.784C46.6349 53.1919 47.2225 53.4377 47.8417 53.4848C48.461 53.5319 49.079 53.3779 49.6039 53.0456C49.9663 52.876 50.2814 52.6195 50.5212 52.299C50.7611 51.9784 50.9183 51.6035 50.979 51.2076L60.419 54.5256C59.7686 53.1647 59.2795 51.7323 58.9614 50.2577" stroke="#ECECEC" stroke-width="0.62" stroke-linecap="round" stroke-linejoin="round"/>
<path d="M64.9703 60.0325C64.9703 60.0325 63.9184 62.0976 64.8122 65.4018" stroke="#ECECEC" stroke-width="0.62" stroke-linecap="round" stroke-linejoin="round"/>
<path d="M69.4258 60.1495C69.4258 60.1495 68.2707 64.4931 70.3746 67.2329" stroke="#ECECEC" stroke-width="0.62" stroke-linecap="round" stroke-linejoin="round"/>
<path d="M74.1562 58.5801C74.1562 58.5801 74.4038 65.0714 76.652 66.9782" stroke="#ECECEC" stroke-width="0.62" stroke-linecap="round" stroke-linejoin="round"/>
<path d="M78.0957 55.2139C78.0957 55.2139 81.1828 62.2697 84.2011 63.674" stroke="#ECECEC" stroke-width="0.62" stroke-linecap="round" stroke-linejoin="round"/>
<path d="M79.8076 51.5793C79.8076 51.5793 84.8267 55.2759 90.052 56.157" stroke="#ECECEC" stroke-width="0.62" stroke-linecap="round" stroke-linejoin="round"/>
<path d="M79.6914 46.7745C79.6914 46.7745 87.1306 47.5317 91.7785 44.7645" stroke="#ECECEC" stroke-width="0.62" stroke-linecap="round" stroke-linejoin="round"/>
<path d="M76.2949 41.2951C76.2949 41.2951 83.8235 39.6224 88.2032 33.4339" stroke="#ECECEC" stroke-width="0.62" stroke-linecap="round" stroke-linejoin="round"/>
<path d="M70.3818 38.6036C70.3818 38.6036 77.1542 31.6304 74.9746 23.0878" stroke="#ECECEC" stroke-width="0.62" stroke-linecap="round" stroke-linejoin="round"/>
<path d="M65.3006 38.8789C65.3006 38.8789 65.1494 26.9908 59.8896 22.4063" stroke="#ECECEC" stroke-width="0.62" stroke-linecap="round" stroke-linejoin="round"/>
<path d="M61.5401 40.889C61.5401 40.889 54.7609 32.8213 45.8984 33.1311" stroke="#ECECEC" stroke-width="0.62" stroke-linecap="round" stroke-linejoin="round"/>
<path d="M35.8115 45.8177C35.8115 45.8177 39.3799 25.3525 55.9153 23.8725" stroke="#ECECEC" stroke-width="0.62" stroke-linecap="round" stroke-linejoin="round"/>
<path d="M47.2049 31.3344C45.9909 30.7353 44.6757 30.3687 43.3271 30.2537" stroke="#ECECEC" stroke-width="0.62" stroke-linecap="round" stroke-linejoin="round"/>
<path d="M27.2109 58.5801C27.2109 58.5801 36.2728 63.0614 34.1139 76.161" stroke="#ECECEC" stroke-width="0.62" stroke-linecap="round" stroke-linejoin="round"/>
<path d="M49.3701 73.9513L58.5832 92.5648" stroke="#ECECEC" stroke-width="0.62" stroke-linecap="round" stroke-linejoin="round"/>
<path d="M78.0205 55.3585L66.3047 47.9172" stroke="#ECECEC" stroke-width="0.62" stroke-linecap="round" stroke-linejoin="round"/>
<path d="M91.1321 63.6946L87 61.0651" stroke="#ECECEC" stroke-width="0.62" stroke-linecap="round" stroke-linejoin="round"/>
<path d="M31.6522 24.7398C32.2073 24.6535 32.7207 24.3931 33.1186 23.996C33.5164 23.5989 33.7782 23.0857 33.8661 22.5302L33.9899 21.7041L34.1205 22.5302C34.2084 23.0857 34.4702 23.5989 34.868 23.996C35.2658 24.3931 35.7793 24.6535 36.3344 24.7398L37.1526 24.8706L36.3344 25.0014C35.7789 25.0867 35.2649 25.3468 34.8669 25.7441C34.4688 26.1414 34.2074 26.6552 34.1205 27.2111L33.9899 28.0371L33.8661 27.2111C33.7792 26.6552 33.5178 26.1414 33.1197 25.7441C32.7217 25.3468 32.2077 25.0867 31.6522 25.0014L30.8271 24.8706L31.6522 24.7398Z" stroke="#ECECEC" stroke-width="0.62" stroke-linecap="round" stroke-linejoin="round"/>
<path d="M40.6932 82.1636C41.2475 82.0769 41.7599 81.8162 42.1566 81.4191C42.5533 81.0219 42.8137 80.5089 42.9002 79.9539L43.0309 79.1279L43.1615 79.9539C43.249 80.5084 43.5098 81.0209 43.9063 81.4179C44.3028 81.8149 44.8147 82.0759 45.3685 82.1636L46.1936 82.2944L45.3685 82.4252C44.8143 82.5118 44.3018 82.7725 43.9051 83.1697C43.5084 83.5668 43.248 84.0799 43.1615 84.6348L43.0309 85.4609L42.9002 84.6348C42.8147 84.0795 42.5546 83.5658 42.1578 83.1685C41.7609 82.7712 41.2479 82.5108 40.6932 82.4252L39.8682 82.2944L40.6932 82.1636Z" stroke="#ECECEC" stroke-width="0.62" stroke-linecap="round" stroke-linejoin="round"/>
<path d="M20.5002 43.0849C20.8646 43.028 21.2014 42.8566 21.4622 42.5956C21.723 42.3345 21.8941 41.9972 21.9509 41.6324L22.0334 41.0886L22.1228 41.6324C22.1796 41.9972 22.3508 42.3345 22.6115 42.5956C22.8723 42.8566 23.2092 43.028 23.5735 43.0849L24.1167 43.1743L23.5735 43.257C23.2096 43.3148 22.8732 43.4865 22.6127 43.7474C22.3521 44.0083 22.1806 44.345 22.1228 44.7094L22.0334 45.2532L21.9509 44.7094C21.8931 44.345 21.7216 44.0083 21.461 43.7474C21.2005 43.4865 20.8641 43.3148 20.5002 43.257L19.957 43.1743L20.5002 43.0849Z" stroke="#ECECEC" stroke-width="0.62" stroke-linecap="round" stroke-linejoin="round"/>
<path d="M56.9678 70.5302C56.9678 70.5302 69.7355 84.6692 72.6713 87.4296" stroke="#ECECEC" stroke-width="0.62" stroke-linecap="round" stroke-linejoin="round"/>
<path d="M49.6181 51.7721C49.6181 52.0743 49.5286 52.3698 49.3609 52.6211C49.1932 52.8724 48.9548 53.0683 48.6759 53.1839C48.397 53.2996 48.0901 53.3299 47.794 53.2709C47.4979 53.2119 47.226 53.0664 47.0125 52.8527C46.799 52.6389 46.6537 52.3666 46.5948 52.0702C46.5359 51.7738 46.5661 51.4665 46.6816 51.1873C46.7971 50.908 46.9928 50.6694 47.2438 50.5014C47.4948 50.3335 47.7899 50.2439 48.0918 50.2439C48.4966 50.2439 48.8848 50.4049 49.1711 50.6915C49.4573 50.9781 49.6181 51.3668 49.6181 51.7721Z" stroke="#ECECEC" stroke-width="0.62" stroke-linecap="round" stroke-linejoin="round"/>
<path d="M48.9098 51.2971C48.9084 51.4588 48.8593 51.6165 48.7685 51.7503C48.6778 51.8841 48.5496 51.988 48.4 52.049C48.2503 52.1099 48.0861 52.1252 47.9278 52.0928C47.7695 52.0604 47.6244 51.9819 47.5107 51.867C47.3969 51.7522 47.3197 51.6062 47.2887 51.4475C47.2576 51.2888 47.2742 51.1245 47.3364 50.9752C47.3985 50.8259 47.5034 50.6984 47.6378 50.6087C47.7722 50.5189 47.9301 50.4711 48.0916 50.4711C48.1996 50.4711 48.3066 50.4925 48.4063 50.5341C48.506 50.5757 48.5965 50.6366 48.6726 50.7134C48.7486 50.7902 48.8088 50.8813 48.8495 50.9815C48.8902 51.0817 48.9107 51.189 48.9098 51.2971Z" stroke="#ECECEC" stroke-width="0.62" stroke-linecap="round" stroke-linejoin="round"/>
<path d="M90.8209 64.6676C97.7152 43.13 85.8653 20.0747 64.3535 13.1722C42.8417 6.26967 19.814 18.1337 12.9197 39.6713C6.02543 61.2089 17.8753 84.2642 39.3871 91.1667C60.8989 98.0692 83.9266 86.2052 90.8209 64.6676Z" stroke="#ECECEC" stroke-width="0.62" stroke-linecap="round" stroke-linejoin="round"/>
</svg>
