<svg xmlns="http://www.w3.org/2000/svg" viewBox="0 0 82.45 82.54"><defs><style>.cls-1{fill:none;stroke:#ececec;stroke-linecap:round;stroke-linejoin:round;stroke-width:0.62px;}</style></defs><g id="Calque_2" data-name="Calque 2"><g id="Calque_1-2" data-name="Calque 1"><path class="cls-1" d="M49.5,49.09c-.36,3.8-1.21,8.51-3.18,10.54-3.55,3.66-9.78,3.4-14,4C29.16,64,16.94,67.3,14,66.43a3.88,3.88,0,0,1-2.81-3.77c-1.47-.56-1.78-2.61-1.85-4A6.43,6.43,0,0,1,10.88,54c1.49-1.68,3-3.31,4.54-5a65.58,65.58,0,0,0,8.72-12.39,20.55,20.55,0,0,1,2.54-3.72,12.46,12.46,0,0,1,4.52-3.54s6.31-15.46,18.57-18,26,3,30.19,16.52S77.72,55.23,63.72,56.36s-15.36-11-15.36-11A11.13,11.13,0,0,0,59.86,49c7.58-1.76,12-8.62,8.13-15.7s-16.38-8.53-20.16,1.15c0,0,4.4-5.55,9.2-4.2,0,0,.33,5.76-2.84,8.81a51.53,51.53,0,0,0-4.42,4.57s0,1.26-.09,3.11"/><path class="cls-1" d="M9.36,57.44s4.19-3.95,5.55-2.76-5.6,3.61-5.6,3.61"/><path class="cls-1" d="M11.19,62.66s5.5-.65,7.31-1.61,2.06-1.82,2.06-1.82"/><path class="cls-1" d="M57,30.22s-6.6,4.31-7.77,6.7-.95,2.44-.95,2.44-.94-3-.47-4.94c0,0-2.47.32-6.83-1.81s-10.32,1.32-10.32,1.32c-.6-1.07.51-4.57.51-4.57"/><path class="cls-1" d="M40.33,40.28a4.33,4.33,0,0,0-1.55-.84A4.54,4.54,0,0,0,37,39.27c-1.07.13-2.46,1.23-3.49,2.2-2,1.82-3.92,3.65-5.92,5.41l-6.25,5.5"/><path class="cls-1" d="M33.46,41.56a2.42,2.42,0,0,1,1.07-.09,2.24,2.24,0,0,1,1,.42,2.89,2.89,0,0,0,3.44.26,2.45,2.45,0,0,0,.91-.75,2.41,2.41,0,0,0,.46-1.09l9.44,3.32a19.58,19.58,0,0,1-1.46-4.27"/><path class="cls-1" d="M54.32,49.14a8,8,0,0,0-.16,5.36"/><path class="cls-1" d="M58.78,49.25s-1.16,4.35.95,7.09"/><path class="cls-1" d="M63.51,47.68s.25,6.49,2.49,8.4"/><path class="cls-1" d="M67.45,44.32s3.09,7,6.1,8.46"/><path class="cls-1" d="M69.16,40.68s5,3.7,10.24,4.58"/><path class="cls-1" d="M69,35.88s7.44.75,12.09-2"/><path class="cls-1" d="M65.65,30.4s7.53-1.67,11.91-7.86"/><path class="cls-1" d="M59.73,27.71s6.78-7,4.6-15.52"/><path class="cls-1" d="M54.65,28s-.15-11.89-5.41-16.47"/><path class="cls-1" d="M50.89,30s-6.78-8.07-15.64-7.76"/><path class="cls-1" d="M25.16,34.92S28.73,14.46,45.27,13"/><path class="cls-1" d="M36.56,20.44a10.76,10.76,0,0,0-3.88-1.08"/><path class="cls-1" d="M16.56,47.68s9.07,4.48,6.91,17.58"/><path class="cls-1" d="M38.72,63.05l9.22,18.62"/><path class="cls-1" d="M67.37,44.46,55.66,37"/><path class="cls-1" d="M80.48,52.8l-4.13-2.63"/><path class="cls-1" d="M21,13.84a2.59,2.59,0,0,0,1.47-.74,2.67,2.67,0,0,0,.75-1.47l.12-.82.13.82a2.67,2.67,0,0,0,.75,1.47,2.59,2.59,0,0,0,1.47.74l.82.13-.82.13a2.67,2.67,0,0,0-1.47.75,2.64,2.64,0,0,0-.75,1.46l-.13.83-.12-.83a2.64,2.64,0,0,0-.75-1.46A2.67,2.67,0,0,0,21,14.1L20.18,14Z"/><path class="cls-1" d="M30.05,71.27a2.67,2.67,0,0,0,1.46-.75,2.59,2.59,0,0,0,.74-1.46l.13-.83.13.83a2.68,2.68,0,0,0,2.21,2.21l.83.13-.83.13a2.63,2.63,0,0,0-1.46.74,2.67,2.67,0,0,0-.75,1.47l-.13.82-.13-.82a2.63,2.63,0,0,0-2.2-2.21l-.83-.13Z"/><path class="cls-1" d="M9.85,32.19a1.74,1.74,0,0,0,1-.49,1.65,1.65,0,0,0,.49-1l.09-.55.09.55a1.69,1.69,0,0,0,.48,1,1.8,1.8,0,0,0,1,.49l.54.09-.54.08a1.74,1.74,0,0,0-1,.49,1.65,1.65,0,0,0-.49,1l-.09.55-.09-.55a1.71,1.71,0,0,0-.49-1,1.74,1.74,0,0,0-1-.49l-.54-.08Z"/><path class="cls-1" d="M46.32,59.63S59.09,73.77,62,76.53"/><path class="cls-1" d="M39,40.87a1.5,1.5,0,0,1-.26.85,1.46,1.46,0,0,1-.68.57,1.56,1.56,0,0,1-.88.08,1.51,1.51,0,0,1-1.2-1.2,1.56,1.56,0,0,1,.08-.88,1.6,1.6,0,0,1,.57-.69,1.56,1.56,0,0,1,.84-.25A1.52,1.52,0,0,1,39,40.87Z"/><path class="cls-1" d="M38.26,40.4a.8.8,0,0,1-.14.45.78.78,0,0,1-.37.3.84.84,0,0,1-.47.05,1,1,0,0,1-.42-.23.85.85,0,0,1-.22-.42.84.84,0,0,1,.35-.84.8.8,0,0,1,.45-.14.88.88,0,0,1,.32.07.8.8,0,0,1,.27.18.78.78,0,0,1,.17.26A.87.87,0,0,1,38.26,40.4Z"/><path class="cls-1" d="M80.17,53.77a40.91,40.91,0,1,0-51.43,26.5A41,41,0,0,0,80.17,53.77Z"/></g></g></svg>