<svg width="84" height="84" viewBox="0 0 84 84" fill="none" xmlns="http://www.w3.org/2000/svg">
<path d="M41.8845 83.1155C64.4741 83.1155 82.7866 64.7811 82.7866 42.1644C82.7866 19.5478 64.4741 1.21338 41.8845 1.21338C19.2949 1.21338 0.982422 19.5478 0.982422 42.1644C0.982422 64.7811 19.2949 83.1155 41.8845 83.1155Z" stroke="#ECECEC" stroke-width="0.62" stroke-linecap="round" stroke-linejoin="round"/>
<path d="M38.2334 52.3661C36.8277 52.4812 35.4297 52.6765 34.0463 52.9512C31.1586 53.5983 30.361 54.1352 30.361 54.1352C30.361 54.1352 26.0982 55.8286 24.9157 58.3342C24.1024 60.3023 23.5633 62.3731 23.3137 64.4883C23.3137 64.4883 22.5849 67.5377 23.1005 69.596C23.6162 71.6542 24.3862 71.723 24.3862 71.723C24.3862 71.723 25.005 66.2987 24.9913 64.9632C25.4617 64.1674 25.8752 63.3393 26.2289 62.4851C26.9164 60.8743 27.7071 58.169 27.7071 58.169C28.8204 57.5795 29.8419 56.8305 30.7392 55.9456C30.7392 55.9456 35.2907 55.5257 39.0378 54.9475" stroke="#ECECEC" stroke-width="0.62" stroke-linecap="round" stroke-linejoin="round"/>
<path d="M24.9921 64.9633C24.9921 64.9633 24.3045 65.273 23.3145 64.4883" stroke="#ECECEC" stroke-width="0.62" stroke-linecap="round" stroke-linejoin="round"/>
<path d="M27.7078 58.169C26.8583 58.2004 26.0103 58.0768 25.2051 57.8042" stroke="#ECECEC" stroke-width="0.62" stroke-linecap="round" stroke-linejoin="round"/>
<path d="M30.3408 54.1627C30.3692 54.7846 30.5044 55.397 30.7405 55.9731" stroke="#ECECEC" stroke-width="0.62" stroke-linecap="round" stroke-linejoin="round"/>
<path d="M37.4982 50.4937C36.1389 50.1619 34.7615 49.909 33.373 49.7365C30.4303 49.4543 29.5021 49.7365 29.5021 49.7365C29.5021 49.7365 24.923 50.0119 23.0185 52.0288C21.6337 53.6459 20.477 55.4455 19.5808 57.3774C19.5808 57.3774 17.9376 60.0483 17.7932 62.196C17.6488 64.3437 18.3432 64.6191 18.3432 64.6191C18.3432 64.6191 20.6259 59.6628 21.0315 58.4237C21.7262 57.8149 22.3765 57.157 22.9773 56.455C24.1323 55.1402 25.7275 52.8204 25.7275 52.8204C26.9687 52.6059 28.1727 52.2142 29.3027 51.6571C29.3027 51.6571 33.7511 52.6759 37.4982 53.2954" stroke="#ECECEC" stroke-width="0.62" stroke-linecap="round" stroke-linejoin="round"/>
<path d="M21.0454 58.3273C21.0454 58.3273 20.296 58.4099 19.5947 57.3499" stroke="#ECECEC" stroke-width="0.62" stroke-linecap="round" stroke-linejoin="round"/>
<path d="M25.7074 52.7241C24.8901 52.4878 24.1232 52.1028 23.4453 51.5883" stroke="#ECECEC" stroke-width="0.62" stroke-linecap="round" stroke-linejoin="round"/>
<path d="M29.4696 49.709C29.2979 50.3106 29.2344 50.9373 29.2819 51.5607" stroke="#ECECEC" stroke-width="0.62" stroke-linecap="round" stroke-linejoin="round"/>
<path d="M28.3815 45.627C27.4895 46.7191 26.5369 47.7602 25.5282 48.7453C23.3487 50.7484 22.4549 51.1064 22.4549 51.1064C22.4549 51.1064 18.6459 53.6464 15.9095 53.1715C13.8343 52.7138 11.8311 51.9751 9.9553 50.9756C9.9553 50.9756 7.03325 49.8398 5.63753 48.2221C4.24182 46.6044 4.61994 45.9505 4.61994 45.9505C4.61994 45.9505 9.43277 48.5319 10.5191 49.3028C11.4442 49.3661 12.3634 49.4973 13.2693 49.6952C14.9813 50.0394 17.6558 50.9274 17.6558 50.9274C18.7729 50.3478 19.9679 49.9327 21.2035 49.6952C21.2035 49.6952 24.1393 46.1914 26.752 43.4311" stroke="#ECECEC" stroke-width="0.62" stroke-linecap="round" stroke-linejoin="round"/>
<path d="M10.5193 49.3441C10.5193 49.3441 9.87301 49.7296 9.95552 50.9962" stroke="#ECECEC" stroke-width="0.62" stroke-linecap="round" stroke-linejoin="round"/>
<path d="M17.6422 50.9756C17.1327 51.6576 16.7528 52.4276 16.5215 53.2472" stroke="#ECECEC" stroke-width="0.62" stroke-linecap="round" stroke-linejoin="round"/>
<path d="M22.4545 51.1064C21.9575 50.723 21.5296 50.2574 21.1895 49.7296" stroke="#ECECEC" stroke-width="0.62" stroke-linecap="round" stroke-linejoin="round"/>
<path d="M29.3718 43.0318C28.2488 43.8946 27.0756 44.69 25.8584 45.4135C23.287 46.8729 22.3382 47.0106 22.3382 47.0106C22.3382 47.0106 18.0411 48.6213 15.4628 47.5613C13.5452 46.6424 11.7617 45.4659 10.1618 44.0643C10.1618 44.0643 7.61786 42.2884 6.60717 40.3953C5.59648 38.5023 6.12588 37.9516 6.12588 37.9516C6.12588 37.9516 10.2512 41.5587 11.1106 42.5568C11.993 42.8295 12.8546 43.1653 13.6889 43.5618C15.2702 44.2915 17.6766 45.7646 17.6766 45.7646C18.8957 45.4546 20.1532 45.3224 21.41 45.3722C21.41 45.3722 25.0678 42.6188 28.2374 40.5537" stroke="#ECECEC" stroke-width="0.62" stroke-linecap="round" stroke-linejoin="round"/>
<path d="M11.1313 42.5844C11.1313 42.5844 10.4094 42.8115 10.2031 44.0643" stroke="#ECECEC" stroke-width="0.62" stroke-linecap="round" stroke-linejoin="round"/>
<path d="M17.6968 45.7922C17.0463 46.3406 16.5011 47.0031 16.0879 47.7471" stroke="#ECECEC" stroke-width="0.62" stroke-linecap="round" stroke-linejoin="round"/>
<path d="M22.3588 47.0106C21.9605 46.5302 21.6466 45.9855 21.4307 45.3998" stroke="#ECECEC" stroke-width="0.62" stroke-linecap="round" stroke-linejoin="round"/>
<path d="M45.5565 52.3661C46.9623 52.4807 48.3603 52.676 49.7436 52.9512C52.6313 53.5983 53.4289 54.1352 53.4289 54.1352C53.4289 54.1352 57.6917 55.8286 58.8743 58.3342C59.6805 60.3034 60.2126 62.3741 60.4556 64.4883C60.4556 64.4883 61.1844 67.5377 60.6687 69.596C60.1531 71.6542 59.383 71.723 59.383 71.723C59.383 71.723 58.7642 66.2987 58.778 64.9632C58.3076 64.1674 57.8941 63.3393 57.5404 62.4851C56.8529 60.8743 56.0622 58.169 56.0622 58.169C54.9488 57.5795 53.9274 56.8305 53.0301 55.9456C53.0301 55.9456 48.4854 55.5257 44.7314 54.9475" stroke="#ECECEC" stroke-width="0.62" stroke-linecap="round" stroke-linejoin="round"/>
<path d="M58.7773 64.9633C58.7773 64.9633 59.4649 65.273 60.455 64.4883" stroke="#ECECEC" stroke-width="0.62" stroke-linecap="round" stroke-linejoin="round"/>
<path d="M56.0625 58.169C56.9119 58.2004 57.76 58.0768 58.5652 57.8042" stroke="#ECECEC" stroke-width="0.62" stroke-linecap="round" stroke-linejoin="round"/>
<path d="M53.4299 54.1627C53.4016 54.7846 53.2664 55.397 53.0303 55.9731" stroke="#ECECEC" stroke-width="0.62" stroke-linecap="round" stroke-linejoin="round"/>
<path d="M46.2783 50.4937C47.6376 50.1617 49.015 49.9088 50.4036 49.7365C53.3532 49.4543 54.2745 49.7365 54.2745 49.7365C54.2745 49.7365 58.8535 50.0119 60.758 52.0288C62.1429 53.6459 63.2996 55.4455 64.1958 57.3774C64.1958 57.3774 65.839 60.0483 65.9902 62.196C66.1415 64.3437 65.4333 64.6191 65.4333 64.6191C65.4333 64.6191 63.1575 59.6628 62.7519 58.4237C62.0536 57.8164 61.401 57.1583 60.7993 56.455C59.6511 55.1402 58.0491 52.8204 58.0491 52.8204C56.8099 52.6066 55.6081 52.2148 54.4807 51.6571C54.4807 51.6571 50.0254 52.6759 46.2783 53.2954" stroke="#ECECEC" stroke-width="0.62" stroke-linecap="round" stroke-linejoin="round"/>
<path d="M62.7656 58.3273C62.7656 58.3273 63.5151 58.4099 64.2095 57.3499" stroke="#ECECEC" stroke-width="0.62" stroke-linecap="round" stroke-linejoin="round"/>
<path d="M58.0625 52.7241C58.8816 52.487 59.6505 52.1021 60.3314 51.5883" stroke="#ECECEC" stroke-width="0.62" stroke-linecap="round" stroke-linejoin="round"/>
<path d="M54.3018 49.709C54.4741 50.3105 54.54 50.937 54.4965 51.5607" stroke="#ECECEC" stroke-width="0.62" stroke-linecap="round" stroke-linejoin="round"/>
<path d="M55.4229 45.627C56.3149 46.7191 57.2675 47.7602 58.2762 48.7453C60.4557 50.7484 61.3495 51.1064 61.3495 51.1064C61.3495 51.1064 65.1654 53.6464 67.8949 53.1715C69.9701 52.7138 71.9732 51.9751 73.8491 50.9756C73.8491 50.9756 76.778 49.8398 78.1669 48.2221C79.5557 46.6044 79.1844 45.9505 79.1844 45.9505C79.1844 45.9505 74.3716 48.5319 73.2921 49.3028C72.3671 49.3662 71.4479 49.4973 70.542 49.6952C68.83 50.0394 66.1554 50.9274 66.1554 50.9274C65.0383 50.3478 63.8434 49.9327 62.6077 49.6952C62.6077 49.6952 59.6719 46.1914 57.0592 43.4311" stroke="#ECECEC" stroke-width="0.62" stroke-linecap="round" stroke-linejoin="round"/>
<path d="M73.2578 49.3441C73.2578 49.3441 73.9041 49.7296 73.8147 50.9962" stroke="#ECECEC" stroke-width="0.62" stroke-linecap="round" stroke-linejoin="round"/>
<path d="M66.1279 50.9756C66.6374 51.6576 67.0173 52.4276 67.2486 53.2472" stroke="#ECECEC" stroke-width="0.62" stroke-linecap="round" stroke-linejoin="round"/>
<path d="M61.3145 51.1064C61.8115 50.723 62.2393 50.2574 62.5795 49.7296" stroke="#ECECEC" stroke-width="0.62" stroke-linecap="round" stroke-linejoin="round"/>
<path d="M54.3984 43.0318C55.5159 43.8924 56.6821 44.6876 57.8912 45.4136C60.4626 46.8729 61.4182 47.0106 61.4182 47.0106C61.4182 47.0106 65.7085 48.6214 68.2937 47.5613C70.2113 46.6424 71.9947 45.4659 73.5947 44.0644C73.5947 44.0644 76.1799 42.2884 77.1768 40.4229C78.1738 38.5574 77.6512 37.9792 77.6512 37.9792C77.6512 37.9792 73.5603 41.5862 72.6734 42.5844C71.7885 42.8562 70.9245 43.1921 70.0882 43.5894C68.5069 44.3191 66.1005 45.7922 66.1005 45.7922C64.8814 45.4821 63.6239 45.35 62.3671 45.3998C62.3671 45.3998 58.7093 42.6463 55.5397 40.5812" stroke="#ECECEC" stroke-width="0.62" stroke-linecap="round" stroke-linejoin="round"/>
<path d="M72.6455 42.5844C72.6455 42.5844 73.3331 42.8115 73.5668 44.0643" stroke="#ECECEC" stroke-width="0.62" stroke-linecap="round" stroke-linejoin="round"/>
<path d="M66.0723 45.7922C66.7227 46.3406 67.2679 47.0031 67.6811 47.7471" stroke="#ECECEC" stroke-width="0.62" stroke-linecap="round" stroke-linejoin="round"/>
<path d="M61.418 47.0106C61.8153 46.5307 62.127 45.9858 62.3393 45.3998" stroke="#ECECEC" stroke-width="0.62" stroke-linecap="round" stroke-linejoin="round"/>
<path d="M22.3721 41.0837C22.3721 41.0837 18.8656 40.3403 16.8717 37.7382C14.8778 35.1362 17.4561 30.5035 17.4561 30.5035C17.4561 30.5035 16.4523 29.6017 16.6586 26.9446C16.8648 24.2875 22.3102 19.8957 22.7158 19.5515C23.0392 19.2549 23.4487 19.0692 23.8847 19.0215C23.8847 19.0215 24.0428 15.8343 30.4714 13.4388C36.8999 11.0433 38.4881 14.554 38.4881 14.554C38.4881 14.554 31.6883 15.5108 29.9351 17.9063C28.1818 20.3018 28.8487 21.121 28.8487 21.121C30.7938 20.8672 32.666 20.2158 34.3491 19.2073C37.058 17.5621 38.5431 18.2505 38.5431 18.2505C38.5431 18.2505 37.9587 21.1761 34.4522 22.9314C30.9458 24.6868 29.3025 24.9483 28.7731 25.6436C28.2437 26.3388 26.0229 31.4397 23.1971 32.0248C23.1971 32.0248 25.3972 33.4635 24.6409 37.8208" stroke="#ECECEC" stroke-width="0.62" stroke-linecap="round" stroke-linejoin="round"/>
<path d="M17.4834 30.5035C17.4834 30.5035 21.0999 32.369 23.1694 31.9972" stroke="#ECECEC" stroke-width="0.62" stroke-linecap="round" stroke-linejoin="round"/>
<path d="M61.3976 41.0837C61.3976 41.0837 64.9041 40.3403 66.898 37.7382C68.8919 35.1362 66.3136 30.5035 66.3136 30.5035C66.3136 30.5035 67.3243 29.6017 67.1111 26.9446C66.898 24.2875 61.4664 19.8957 61.0539 19.5515C60.7305 19.2549 60.321 19.0692 59.885 19.0215C59.885 19.0215 59.7269 15.8343 53.3052 13.4388C46.8835 11.0433 45.2816 14.554 45.2816 14.554C45.2816 14.554 52.0814 15.5108 53.8346 17.9063C55.5879 20.3018 54.921 21.121 54.921 21.121C52.9759 20.8672 51.1037 20.2158 49.4206 19.2073C46.7117 17.5621 45.2266 18.2505 45.2266 18.2505C45.2266 18.2505 45.811 21.1761 49.3175 22.9314C52.8239 24.6868 54.4672 24.9483 54.9966 25.6436C55.526 26.3388 57.7468 31.4397 60.5726 32.0248C60.5726 32.0248 58.3793 33.4635 59.1288 37.8208" stroke="#ECECEC" stroke-width="0.62" stroke-linecap="round" stroke-linejoin="round"/>
<path d="M66.2856 30.5035C66.2856 30.5035 62.676 32.369 60.5996 31.9972" stroke="#ECECEC" stroke-width="0.62" stroke-linecap="round" stroke-linejoin="round"/>
<path d="M23.9121 19.0559C23.9121 19.0559 24.2696 22.1398 28.7249 25.6505" stroke="#ECECEC" stroke-width="0.62" stroke-linecap="round" stroke-linejoin="round"/>
<path d="M59.8577 19.0559C59.8577 19.0559 57.637 24.9346 55.0449 25.6505" stroke="#ECECEC" stroke-width="0.62" stroke-linecap="round" stroke-linejoin="round"/>
<path d="M47.3919 55.5395C46.6776 55.9078 45.8853 56.099 45.0818 56.097H38.6876C37.8862 56.0998 37.096 55.9085 36.3843 55.5395C32.6303 53.6258 20.8252 47.0794 22.3653 41.0837C23.2316 37.7245 27.6319 35.4666 32.039 34.0004C31.8368 33.9299 31.6616 33.7977 31.5383 33.6223C31.415 33.447 31.3496 33.2374 31.3515 33.0229C31.3808 32.7696 31.502 32.5359 31.6922 32.3663C31.8823 32.1966 32.1281 32.1029 32.3828 32.1029C32.6375 32.1029 32.8833 32.1966 33.0735 32.3663C33.2636 32.5359 33.3849 32.7696 33.4141 33.0229C33.4099 33.2456 33.338 33.4618 33.2079 33.6424L33.3385 33.6011C38.9192 31.9353 44.864 31.9353 50.4446 33.6011L50.5753 33.6424C50.4472 33.4612 50.3776 33.245 50.3759 33.0229C50.3748 32.8317 50.4265 32.6439 50.5252 32.4802C50.6238 32.3165 50.7657 32.1832 50.9352 32.095C51.1046 32.0068 51.2951 31.9671 51.4856 31.9803C51.6761 31.9934 51.8593 32.059 52.0151 32.1697C52.1708 32.2804 52.293 32.4319 52.3683 32.6077C52.4435 32.7834 52.4689 32.9766 52.4416 33.1658C52.4143 33.3551 52.3354 33.5331 52.2135 33.6804C52.0917 33.8276 51.9316 33.9383 51.7509 34.0004C56.11 35.4735 60.5378 37.7314 61.4041 41.0837C62.9442 47.0656 51.1391 53.612 47.3919 55.5395Z" fill="#352C83" stroke="#ECECEC" stroke-width="0.62" stroke-linecap="round" stroke-linejoin="round"/>
<path d="M70.549 26.7587C70.9134 26.7019 71.2502 26.5305 71.511 26.2694C71.7718 26.0084 71.9429 25.6711 71.9997 25.3063L72.0822 24.7625L72.1716 25.3063C72.2284 25.6711 72.3996 26.0084 72.6603 26.2694C72.9211 26.5305 73.2579 26.7019 73.6223 26.7587L74.1655 26.8482L73.6223 26.9308C73.2584 26.9887 72.9221 27.1604 72.6615 27.4213C72.4009 27.6822 72.2294 28.0189 72.1716 28.3833L72.0822 28.9271L71.9997 28.3833C71.9419 28.0189 71.7704 27.6822 71.5099 27.4213C71.2493 27.1604 70.913 26.9887 70.549 26.9308L70.0059 26.8482L70.549 26.7587Z" stroke="#ECECEC" stroke-width="0.62" stroke-linecap="round" stroke-linejoin="round"/>
<path d="M39.5467 68.7217C40.1006 68.6341 40.6125 68.3731 41.009 67.9761C41.4054 67.5791 41.6662 67.0666 41.7537 66.5121L41.8844 65.686L42.015 66.5121C42.1026 67.0666 42.3633 67.5791 42.7598 67.9761C43.1563 68.3731 43.6682 68.6341 44.222 68.7217L45.0471 68.8525L44.222 68.9833C43.6678 69.07 43.1553 69.3307 42.7586 69.7278C42.3619 70.125 42.1015 70.638 42.015 71.193L41.8844 72.019L41.7537 71.193C41.6672 70.638 41.4068 70.125 41.0101 69.7278C40.6134 69.3307 40.101 69.07 39.5467 68.9833L38.7217 68.8525L39.5467 68.7217Z" stroke="#ECECEC" stroke-width="0.62" stroke-linecap="round" stroke-linejoin="round"/>
</svg>
