<svg width="84" height="83" viewBox="0 0 84 83" fill="none" xmlns="http://www.w3.org/2000/svg">
<mask id="mask0_2_5377" style="mask-type:luminance" maskUnits="userSpaceOnUse" x="1" y="0" width="82" height="83">
<path d="M42.0427 82.5424C64.6323 82.5424 82.9448 64.208 82.9448 41.5913C82.9448 18.9747 64.6323 0.640259 42.0427 0.640259C19.4531 0.640259 1.14062 18.9747 1.14062 41.5913C1.14062 64.208 19.4531 82.5424 42.0427 82.5424Z" fill="white"/>
</mask>
<g mask="url(#mask0_2_5377)">
<path d="M8.3114 52.6121C7.45885 54.6772 7.17696 57.2035 9.85151 58.8074C9.85151 58.8074 9.2946 61.2856 12.4642 62.7381C15.6338 64.1905 18.7346 62.6692 20.591 62.7381C22.4473 62.8069 25.1356 64.0459 25.2044 67.7012C25.2731 71.3564 22.8599 74.7983 22.8599 74.7983C23.6452 74.6685 24.3875 74.3503 25.0233 73.8708C25.6591 73.3913 26.1694 72.7648 26.5107 72.0448C26.3752 74.3034 25.4219 76.435 23.8293 78.0405C23.8293 78.0405 30.4366 78.0405 31.5367 71.4872C32.6368 64.9339 31.5367 62.3181 31.5367 62.3181C31.5367 62.3181 44.9644 61.6986 47.859 57.8369C50.7536 53.9751 52.4724 38.5625 52.4724 38.5625C54.8223 36.1297 56.7322 33.3067 58.1172 30.2195C60.4617 25.0498 60.3242 19.949 57.7734 19.123C55.2226 18.2969 48.0653 26.695 47.4602 30.8253C46.3658 29.7644 45.0803 28.9212 43.6719 28.3403C43.6719 28.3403 52.4862 11.5165 69.0079 10.2774C69.0079 10.2774 69.7711 9.03838 66.8765 8.55652C63.9819 8.07466 43.3281 10.0021 33.0699 26.8258C33.0699 26.8258 31.2754 27.1012 28.319 32.8904C25.9263 37.5713 15.6131 45.4944 11.7491 48.358C10.2454 49.4444 9.05867 50.913 8.3114 52.6121Z" stroke="#ECECEC" stroke-width="0.65" stroke-linecap="round" stroke-linejoin="round"/>
<path d="M9.85156 58.7524C9.85156 58.7524 14.8775 58.9933 17.1808 58.064C19.4841 57.1347 19.931 56.1297 19.931 56.1297" stroke="#ECECEC" stroke-width="0.65" stroke-linecap="round" stroke-linejoin="round"/>
<path d="M8.43545 52.3299C8.82077 52.4027 9.21775 52.3847 9.59489 52.2771C9.97202 52.1696 10.3189 51.9755 10.6081 51.7103C11.1238 51.3111 12.2238 49.8999 12.8839 50.8224C13.5439 51.7448 12.4713 52.6741 11.7082 53.1353C11.162 53.4526 10.5417 53.6197 9.91023 53.6197C9.27874 53.6197 8.65849 53.4526 8.1123 53.1353" stroke="#ECECEC" stroke-width="0.65" stroke-linecap="round" stroke-linejoin="round"/>
<path d="M12.4707 47.7728C12.4707 47.7728 15.2553 47.7109 18.6105 50.1959C21.9657 52.6809 23.2377 56.9488 21.23 62.7793" stroke="#ECECEC" stroke-width="0.65" stroke-linecap="round" stroke-linejoin="round"/>
<path d="M21.0928 53.0045C23.0585 50.5614 24.7379 47.9007 26.0981 45.0745C28.0095 40.8892 29.3021 37.8879 32.1416 37.5024C34.9812 37.117 37.8758 39.0995 37.8758 39.0995L47.4464 30.7633C48.4849 32.3462 49.3059 34.0619 49.8872 35.8641C50.2964 32.8856 50.9659 29.9488 51.8879 27.0874C53.3661 22.5717 57.3883 18.9991 57.3883 18.9991" stroke="#ECECEC" stroke-width="0.65" stroke-linecap="round" stroke-linejoin="round"/>
<path d="M37.8756 39.127C37.8756 39.127 35.1254 40.8135 33.5371 40.5037C32.1244 40.1475 30.7549 39.6374 29.4531 38.9824" stroke="#ECECEC" stroke-width="0.65" stroke-linecap="round" stroke-linejoin="round"/>
<path d="M31.5369 62.2906H28.8486" stroke="#ECECEC" stroke-width="0.65" stroke-linecap="round" stroke-linejoin="round"/>
<path d="M57.6152 9.65106C57.6152 9.65106 59.4235 10.9796 59.7535 12.7212" stroke="#ECECEC" stroke-width="0.65" stroke-linecap="round" stroke-linejoin="round"/>
<path d="M50.0938 12.2462C50.0938 12.2462 53.0433 14.4696 53.064 17.0647" stroke="#ECECEC" stroke-width="0.65" stroke-linecap="round" stroke-linejoin="round"/>
<path d="M41.7051 17.1887C41.7051 17.1887 46.2635 19.3639 47.1573 23.1224" stroke="#ECECEC" stroke-width="0.65" stroke-linecap="round" stroke-linejoin="round"/>
<path d="M33.0566 26.7914C36.6615 26.4529 40.2954 26.9669 43.6655 28.292" stroke="#ECECEC" stroke-width="0.65" stroke-linecap="round" stroke-linejoin="round"/>
<path d="M36.3906 61.8362L51.5579 82.9898" stroke="#ECECEC" stroke-width="0.65" stroke-linecap="round" stroke-linejoin="round"/>
<path d="M35.1875 39.003C35.1875 39.3053 35.0979 39.6008 34.9302 39.8521C34.7625 40.1034 34.5241 40.2992 34.2452 40.4149C33.9663 40.5306 33.6594 40.5608 33.3633 40.5019C33.0673 40.4429 32.7953 40.2974 32.5818 40.0836C32.3683 39.8699 32.223 39.5976 32.1641 39.3012C32.1052 39.0047 32.1354 38.6975 32.2509 38.4182C32.3665 38.139 32.5621 37.9003 32.8131 37.7324C33.0641 37.5645 33.3592 37.4749 33.6611 37.4749C33.8618 37.474 34.0607 37.5129 34.2463 37.5893C34.4319 37.6658 34.6005 37.7783 34.7424 37.9204C34.8844 38.0625 34.9968 38.2314 35.0731 38.4172C35.1495 38.603 35.1884 38.8021 35.1875 39.003Z" stroke="#ECECEC" stroke-width="0.62" stroke-linecap="round" stroke-linejoin="round"/>
<path d="M34.486 38.5143C34.4874 38.678 34.4402 38.8383 34.3503 38.9751C34.2605 39.1118 34.1321 39.2188 33.9815 39.2824C33.8309 39.3459 33.6648 39.3633 33.5043 39.3322C33.3438 39.3011 33.1961 39.223 33.08 39.1077C32.964 38.9925 32.8847 38.8453 32.8523 38.6849C32.8199 38.5245 32.8358 38.358 32.8981 38.2067C32.9603 38.0553 33.0661 37.9259 33.2019 37.8349C33.3377 37.7438 33.4975 37.6952 33.661 37.6952C33.769 37.6942 33.8761 37.7148 33.9762 37.7555C34.0763 37.7963 34.1673 37.8565 34.244 37.9326C34.3207 38.0088 34.3815 38.0994 34.4231 38.1992C34.4646 38.2991 34.486 38.4062 34.486 38.5143Z" stroke="#ECECEC" stroke-width="0.62" stroke-linecap="round" stroke-linejoin="round"/>
<path d="M49.8877 35.8917L52.4729 38.5075C52.4729 38.5075 71.8066 51.6691 81.2191 55.2761" stroke="#ECECEC" stroke-width="0.65" stroke-linecap="round" stroke-linejoin="round"/>
<path d="M46.7998 58.8074L63.514 76.4503" stroke="#ECECEC" stroke-width="0.65" stroke-linecap="round" stroke-linejoin="round"/>
</g>
<path d="M42.0359 82.5424C64.6254 82.5424 82.9379 64.208 82.9379 41.5913C82.9379 18.9747 64.6254 0.640259 42.0359 0.640259C19.4463 0.640259 1.13379 18.9747 1.13379 41.5913C1.13379 64.208 19.4463 82.5424 42.0359 82.5424Z" stroke="#ECECEC" stroke-width="0.62" stroke-linecap="round" stroke-linejoin="round"/>
<path d="M22.8534 17.2025C23.4077 17.1158 23.9201 16.8551 24.3168 16.4579C24.7135 16.0608 24.9739 15.5477 25.0604 14.9928L25.191 14.1667L25.3217 14.9928C25.4082 15.5477 25.6686 16.0608 26.0653 16.4579C26.462 16.8551 26.9744 17.1158 27.5287 17.2025L28.3537 17.3332L27.5287 17.464C26.9748 17.5517 26.4629 17.8127 26.0664 18.2097C25.6699 18.6067 25.4092 19.1192 25.3217 19.6737L25.191 20.4997L25.0604 19.6737C24.9729 19.1192 24.7121 18.6067 24.3156 18.2097C23.9191 17.8127 23.4072 17.5517 22.8534 17.464L22.0283 17.3332L22.8534 17.2025Z" stroke="#ECECEC" stroke-width="0.62" stroke-linecap="round" stroke-linejoin="round"/>
<path d="M12.9045 29.4141C13.2689 29.3572 13.6057 29.1859 13.8665 28.9248C14.1273 28.6637 14.2984 28.3264 14.3552 27.9616L14.4446 27.4178L14.5271 27.9616C14.5863 28.3266 14.7591 28.6635 15.0209 28.9243C15.2826 29.1851 15.6199 29.3566 15.9847 29.4141L16.521 29.4967L15.9847 29.5862C15.6199 29.6438 15.2826 29.8152 15.0209 30.076C14.7591 30.3368 14.5863 30.6737 14.5271 31.0387L14.4446 31.5825L14.3552 31.0387C14.2984 30.6739 14.1273 30.3366 13.8665 30.0755C13.6057 29.8144 13.2689 29.6431 12.9045 29.5862L12.3613 29.4967L12.9045 29.4141Z" stroke="#ECECEC" stroke-width="0.62" stroke-linecap="round" stroke-linejoin="round"/>
<path d="M68.1008 29.9579C68.4647 29.9 68.8011 29.7283 69.0616 29.4674C69.3222 29.2065 69.4937 28.8698 69.5515 28.5054L69.634 27.9616L69.7234 28.5054C69.7802 28.8702 69.9513 29.2075 70.2121 29.4686C70.4729 29.7297 70.8097 29.901 71.1741 29.9579L71.7173 30.0474L71.1741 30.13C70.8097 30.1869 70.4729 30.3582 70.2121 30.6193C69.9513 30.8803 69.7802 31.2176 69.7234 31.5824L69.634 32.1263L69.5515 31.5824C69.4937 31.2181 69.3222 30.8813 69.0616 30.6204C68.8011 30.3595 68.4647 30.1879 68.1008 30.13L67.5576 30.0474L68.1008 29.9579Z" stroke="#ECECEC" stroke-width="0.62" stroke-linecap="round" stroke-linejoin="round"/>
</svg>
