<svg width="84" height="84" viewBox="0 0 84 84" fill="none" xmlns="http://www.w3.org/2000/svg">
<mask id="mask0_2_5381" style="mask-type:luminance" maskUnits="userSpaceOnUse" x="1" y="1" width="83" height="83">
<path d="M42.115 83.033C64.7045 83.033 83.017 64.6986 83.017 42.0819C83.017 19.4653 64.7045 1.13086 42.115 1.13086C19.5254 1.13086 1.21289 19.4653 1.21289 42.0819C1.21289 64.6986 19.5254 83.033 42.115 83.033Z" fill="white"/>
</mask>
<g mask="url(#mask0_2_5381)">
<path d="M11.4366 46.2878C13.4993 44.8629 16.0638 44.5325 17.212 41.9649C17.3151 41.7377 17.5008 41.2214 17.047 41.4761C15.8109 42.2271 14.3532 42.5263 12.9217 42.3228C10.3915 42.1094 9.48399 40.9461 9.38086 40.2095" stroke="#ECECEC" stroke-width="0.62" stroke-linecap="round" stroke-linejoin="round"/>
<path d="M51.0873 25.6918L38.3883 31.0129C38.3883 31.0129 34.9506 28.6449 32.6542 29.8289C30.3578 31.0129 17.2051 41.4211 17.2051 41.4211" stroke="#ECECEC" stroke-width="0.62" stroke-linecap="round" stroke-linejoin="round"/>
<path d="M38.3886 31.0129C38.3886 31.0129 36.2847 31.8046 34.6346 32.2176C32.9845 32.6306 30.585 31.2126 30.585 31.2126" stroke="#ECECEC" stroke-width="0.62" stroke-linecap="round" stroke-linejoin="round"/>
<path d="M52.8135 11.0847C52.8135 11.0847 55.0755 12.9571 53.9342 17.9684C53.3836 20.6751 52.4237 23.2819 51.0877 25.6988L56.5881 30.7652C57.6882 28.3146 58.8501 22.7388 58.0869 19.9509C57.3238 17.163 59.0976 12.3788 53.2741 11.1673C47.4506 9.95577 42.8166 15.2218 42.8166 15.2218C37.5981 14.2856 32.5859 19.0078 30.0145 21.9816C28.4474 23.8019 26.7442 25.5001 24.9198 27.0617L9.41562 40.2165C7.81364 43.6583 11.437 46.2948 11.437 46.2948C11.437 46.2948 11.0176 52.1253 13.6303 54.6585C13.6303 54.6585 8.81746 65.5553 22.4927 64.7912C22.4927 64.7912 20.0451 70.2982 20.547 74.7588L22.3346 72.6455C21.0259 75.9805 20.5058 79.5734 20.8151 83.1432" stroke="#ECECEC" stroke-width="0.62" stroke-linecap="round" stroke-linejoin="round"/>
<path d="M23.2969 28.4385C23.2969 28.4385 24.3488 23.9159 26.6246 21.3827L24.5963 22.8214C24.5963 22.8214 23.6681 16.9909 35.3152 8.71668L32.9981 9.55649C33.1907 9.48765 33.5963 8.59966 33.7338 8.42756C34.5633 7.36967 35.5459 6.44163 36.649 5.67409C43.3319 0.855508 53.5351 0.001929 61.4006 1.68155C67.8686 3.01482 73.6892 6.51622 77.9017 11.6078C78.9595 12.885 79.8812 14.2692 80.6519 15.738C82.7496 19.6373 83.7702 24.0263 83.6083 28.4522L80.7757 23.7506C84.6002 32.9184 86.4736 42.7839 86.276 52.7172L84.2134 47.9881C85.4564 56.3456 84.3468 64.8846 81.0094 72.6455L80.755 67.3313C80.755 67.3313 79.3799 78.6894 73.8383 83.1638" stroke="#ECECEC" stroke-width="0.62" stroke-linecap="round" stroke-linejoin="round"/>
<path d="M56.5877 30.7582C56.5877 30.7582 61.1255 39.9617 59.3379 45.9574L58.3203 43.259C58.3203 43.259 59.9842 53.4056 54.0782 60.8331L53.3494 56.8543C53.3494 56.8543 53.4937 72.6868 37.082 82.7301" stroke="#ECECEC" stroke-width="0.62" stroke-linecap="round" stroke-linejoin="round"/>
<path d="M22.4932 64.7912C23.8683 64.3713 42.7345 58.3756 46.7016 50.9412C50.6688 43.5069 51.0882 25.6919 51.0882 25.6919C51.0882 25.6919 46.3785 17.693 42.8376 15.2149" stroke="#ECECEC" stroke-width="0.62" stroke-linecap="round" stroke-linejoin="round"/>
<path d="M27.2363 81.6907C27.2363 81.6907 29.7527 79.4053 30.6741 71.6543L30.8666 74.4077C30.8666 74.4077 37.5701 69.1348 37.3914 61.5765" stroke="#ECECEC" stroke-width="0.62" stroke-linecap="round" stroke-linejoin="round"/>
<path d="M64.041 16.3094C64.041 16.3094 71.879 21.4653 72.5803 28.8515L70.1258 26.2701C70.1258 26.2701 75.0417 37.9724 72.5803 48.4149" stroke="#ECECEC" stroke-width="0.62" stroke-linecap="round" stroke-linejoin="round"/>
<path d="M66.7291 51.3474C66.7291 51.3474 67.671 61.432 63.4564 66.877L62.7688 64.8118C62.7688 64.8118 59.2555 77.0235 48.9561 82.2964" stroke="#ECECEC" stroke-width="0.62" stroke-linecap="round" stroke-linejoin="round"/>
<path d="M17.2119 41.9718C17.2119 41.9718 23.833 42.7497 26.2463 46.7904C28.6595 50.8311 27.7795 53.2679 27.7795 53.2679L25.5862 49.9362C25.5862 49.9362 28.9689 56.9163 26.5075 63.387" stroke="#ECECEC" stroke-width="0.62" stroke-linecap="round" stroke-linejoin="round"/>
<path d="M13.6299 54.6584C13.6299 54.6584 21.1241 55.3812 23.613 51.4988" stroke="#ECECEC" stroke-width="0.62" stroke-linecap="round" stroke-linejoin="round"/>
<path d="M13.0111 25.8295C13.4022 25.7682 13.7631 25.5825 14.0404 25.2998C14.3178 25.0171 14.4969 24.6526 14.5512 24.2601L14.6406 23.6818L14.73 24.2601C14.7897 24.6476 14.9712 25.006 15.2481 25.2832C15.5251 25.5605 15.883 25.7422 16.2701 25.802L16.8476 25.8984L16.2701 25.9879C15.883 26.0476 15.5251 26.2294 15.2481 26.5066C14.9712 26.7839 14.7897 27.1423 14.73 27.5298L14.6406 28.108L14.5512 27.5298C14.4915 27.1423 14.31 26.7839 14.0331 26.5066C13.7562 26.2294 13.3982 26.0476 13.0111 25.9879L12.4336 25.8984L13.0111 25.8295Z" stroke="#ECECEC" stroke-width="0.62" stroke-linecap="round" stroke-linejoin="round"/>
<path d="M35.4325 30.8822C35.4339 31.133 35.3608 31.3785 35.2226 31.5877C35.0845 31.7969 34.8874 31.9603 34.6563 32.0573C34.4253 32.1542 34.1707 32.1802 33.9248 32.1322C33.679 32.0841 33.4529 31.964 33.2753 31.7871C33.0977 31.6103 32.9765 31.3846 32.9272 31.1387C32.8778 30.8928 32.9024 30.6378 32.998 30.406C33.0935 30.1741 33.2557 29.9759 33.4639 29.8364C33.672 29.6969 33.9169 29.6225 34.1674 29.6225C34.3332 29.6215 34.4976 29.6535 34.651 29.7164C34.8045 29.7793 34.944 29.8719 35.0615 29.989C35.1791 30.106 35.2724 30.2452 35.3361 30.3985C35.3997 30.5518 35.4325 30.7162 35.4325 30.8822Z" stroke="#ECECEC" stroke-width="0.62" stroke-linecap="round" stroke-linejoin="round"/>
<path d="M34.8477 30.4554C34.8477 30.5915 34.8074 30.7246 34.7319 30.8378C34.6563 30.951 34.5489 31.0393 34.4233 31.0914C34.2977 31.1435 34.1594 31.1571 34.0261 31.1305C33.8927 31.104 33.7702 31.0384 33.674 30.9421C33.5779 30.8459 33.5124 30.7232 33.4859 30.5897C33.4593 30.4562 33.473 30.3177 33.525 30.192C33.577 30.0662 33.6652 29.9587 33.7782 29.883C33.8913 29.8074 34.0242 29.767 34.1602 29.767C34.3425 29.767 34.5174 29.8396 34.6464 29.9686C34.7753 30.0977 34.8477 30.2728 34.8477 30.4554Z" stroke="#ECECEC" stroke-width="0.62" stroke-linecap="round" stroke-linejoin="round"/>
</g>
<path d="M42.115 83.033C64.7045 83.033 83.017 64.6986 83.017 42.0819C83.017 19.4653 64.7045 1.13086 42.115 1.13086C19.5254 1.13086 1.21289 19.4653 1.21289 42.0819C1.21289 64.6986 19.5254 83.033 42.115 83.033Z" stroke="#ECECEC" stroke-width="0.62" stroke-linecap="round" stroke-linejoin="round"/>
</svg>
