<svg width="84" height="84" viewBox="0 0 84 84" fill="none" xmlns="http://www.w3.org/2000/svg">
<path d="M41.9636 83.033C64.5532 83.033 82.8657 64.6986 82.8657 42.0819C82.8657 19.4653 64.5532 1.13086 41.9636 1.13086C19.374 1.13086 1.06152 19.4653 1.06152 42.0819C1.06152 64.6986 19.374 83.033 41.9636 83.033Z" stroke="#ECECEC" stroke-width="0.62" stroke-linecap="round" stroke-linejoin="round"/>
<path d="M25.3867 75.399H58.5402L41.9634 70.2568L25.3867 75.399Z" stroke="#ECECEC" stroke-width="0.62" stroke-linecap="round" stroke-linejoin="round"/>
<path d="M41.9639 65.5002V21.9953" stroke="#ECECEC" stroke-width="0.62" stroke-linecap="round" stroke-linejoin="round"/>
<path d="M67.0589 23.0416C66.4902 24.2144 65.5117 25.1377 64.3087 25.6368C63.0555 26.1151 61.6949 26.239 60.376 25.9947C59.0709 25.7861 57.7978 25.4113 56.5876 24.8796C55.9895 24.6317 55.3775 24.3289 54.8137 24.0466C54.25 23.7644 53.7137 23.5097 53.1774 23.2481C51.0934 22.2262 48.8611 21.5409 46.5632 21.2174C45.0005 21.0292 43.4161 21.2671 41.9773 21.9058V21.9884C40.5323 21.354 38.9447 21.1164 37.3776 21.3C35.0794 21.6316 32.8488 22.3288 30.7703 23.3651C30.2202 23.613 29.6702 23.8883 29.1202 24.1568C28.5701 24.4252 27.9582 24.7419 27.3532 24.9897C26.1424 25.5183 24.8694 25.8908 23.5648 26.098C22.2451 26.3497 20.8814 26.2306 19.6252 25.7538C18.4252 25.2466 17.4486 24.3226 16.875 23.1518C17.5881 24.1439 18.6401 24.8395 19.8314 25.1067C20.9849 25.325 22.1765 25.2128 23.2692 24.7832C24.3811 24.3872 25.4391 23.8529 26.4181 23.1931C26.9269 22.8695 27.3807 22.5391 27.8757 22.1605C28.3708 21.7819 28.9002 21.4033 29.4296 21.0247C31.5968 19.44 34.0009 18.2087 36.5525 17.3763C40.0838 16.356 43.8269 16.325 47.3745 17.2868C49.9204 18.1082 52.3183 19.333 54.4769 20.9146C55.0063 21.2863 55.5288 21.6649 56.0307 22.0366C56.5326 22.4083 56.9933 22.725 57.4883 23.0898C58.4732 23.7463 59.5355 24.2781 60.651 24.6731C61.7441 25.1009 62.9352 25.213 64.0887 24.9966C65.2856 24.7337 66.3434 24.0375 67.0589 23.0416Z" stroke="#ECECEC" stroke-width="0.62" stroke-linecap="round" stroke-linejoin="round"/>
<path d="M41.9567 16.5503C38.8834 12.6059 41.9567 8.77173 41.9567 8.77173C41.9567 8.77173 45.0438 12.6059 41.9567 16.5503Z" fill="#352C83"/>
<path d="M41.9567 16.5503C38.8834 12.6059 41.9567 8.77173 41.9567 8.77173C41.9567 8.77173 45.0438 12.6059 41.9567 16.5503Z" stroke="#ECECEC" stroke-width="0.62" stroke-linecap="round" stroke-linejoin="round"/>
<path d="M41.9574 16.5503C37.0002 15.9376 36.457 11.0433 36.457 11.0433C36.457 11.0433 41.3524 11.5803 41.9574 16.5503Z" fill="#352C83"/>
<path d="M41.9574 16.5503C37.0002 15.9376 36.457 11.0433 36.457 11.0433C36.457 11.0433 41.3524 11.5803 41.9574 16.5503Z" stroke="#ECECEC" stroke-width="0.62" stroke-linecap="round" stroke-linejoin="round"/>
<path d="M41.957 16.5503C42.5689 11.5871 47.4574 11.0433 47.4574 11.0433C47.4574 11.0433 46.9142 15.9514 41.957 16.5503Z" fill="#352C83"/>
<path d="M41.957 16.5503C42.5689 11.5871 47.4574 11.0433 47.4574 11.0433C47.4574 11.0433 46.9142 15.9514 41.957 16.5503Z" stroke="#ECECEC" stroke-width="0.62" stroke-linecap="round" stroke-linejoin="round"/>
<path d="M32.4342 49.5645H13.4717L14.0286 50.0601C19.7009 55.1127 26.1982 55.1127 31.9048 50.0601L32.4342 49.5645Z" stroke="#ECECEC" stroke-width="0.62" stroke-linecap="round" stroke-linejoin="round"/>
<path d="M32.1527 49.5645L23.2283 26.1943L13.7471 49.5645" stroke="#ECECEC" stroke-width="0.62" stroke-linecap="round" stroke-linejoin="round"/>
<path d="M70.4488 49.5645H51.4932L52.0432 50.0601C57.7223 55.1127 64.2196 55.1127 69.9194 50.0601L70.4488 49.5645Z" stroke="#ECECEC" stroke-width="0.62" stroke-linecap="round" stroke-linejoin="round"/>
<path d="M70.1741 49.5645L61.2498 26.1943L51.7686 49.5645" stroke="#ECECEC" stroke-width="0.62" stroke-linecap="round" stroke-linejoin="round"/>
<path d="M23.2285 26.1943V49.3304" stroke="#ECECEC" stroke-width="0.62" stroke-linecap="round" stroke-linejoin="round"/>
<path d="M61.25 26.1943V49.5645" stroke="#ECECEC" stroke-width="0.62" stroke-linecap="round" stroke-linejoin="round"/>
<path d="M30.2686 73.8845H53.652" stroke="#ECECEC" stroke-width="0.62" stroke-linecap="round" stroke-linejoin="round"/>
<path d="M38.6357 71.2894L41.9635 65.5002L45.2912 71.2894" stroke="#ECECEC" stroke-width="0.62" stroke-linecap="round" stroke-linejoin="round"/>
<path d="M16.1738 51.7053H29.4434" stroke="#ECECEC" stroke-width="0.62" stroke-linecap="round" stroke-linejoin="round"/>
<path d="M53.542 51.2579H68.3998" stroke="#ECECEC" stroke-width="0.62" stroke-linecap="round" stroke-linejoin="round"/>
<path d="M9.74532 30.4554C10.1097 30.3985 10.4466 30.2271 10.7073 29.9661C10.9681 29.705 11.1392 29.3677 11.196 29.0029L11.2854 28.4591L11.3679 29.0029C11.4261 29.3683 11.5986 29.7057 11.8605 29.9667C12.1225 30.2277 12.4603 30.3988 12.8255 30.4554L13.3618 30.538L12.8255 30.6275C12.4603 30.684 12.1225 30.8551 11.8605 31.1161C11.5986 31.3771 11.4261 31.7146 11.3679 32.0799L11.2854 32.6237L11.196 32.0799C11.1392 31.7151 10.9681 31.3778 10.7073 31.1168C10.4466 30.8557 10.1097 30.6843 9.74532 30.6275L9.20215 30.538L9.74532 30.4554Z" stroke="#ECECEC" stroke-width="0.62" stroke-linecap="round" stroke-linejoin="round"/>
<path d="M22.2176 63.201C22.772 63.112 23.2841 62.8496 23.6805 62.4515C24.077 62.0533 24.3374 61.5399 24.4247 60.9845L24.5553 60.1584L24.6859 60.9845C24.7731 61.5399 25.0336 62.0533 25.43 62.4515C25.8264 62.8496 26.3385 63.112 26.8929 63.201L27.718 63.3249L26.8929 63.4557C26.3391 63.5434 25.8272 63.8044 25.4307 64.2014C25.0342 64.5984 24.7735 65.1109 24.6859 65.6654L24.5553 66.4914L24.4247 65.6654C24.3371 65.1109 24.0764 64.5984 23.6799 64.2014C23.2834 63.8044 22.7715 63.5434 22.2176 63.4557L21.3926 63.3249L22.2176 63.201Z" stroke="#ECECEC" stroke-width="0.62" stroke-linecap="round" stroke-linejoin="round"/>
<path d="M74.1751 30.4554C73.8111 30.3975 73.4748 30.2258 73.2142 29.9649C72.9537 29.704 72.7822 29.3673 72.7244 29.0029L72.6419 28.4591L72.5525 29.0029C72.4957 29.3677 72.3245 29.705 72.0638 29.9661C71.803 30.2271 71.4661 30.3985 71.1017 30.4554L70.5586 30.538L71.1017 30.6275C71.4661 30.6843 71.803 30.8557 72.0638 31.1168C72.3245 31.3778 72.4957 31.7151 72.5525 32.0799L72.6419 32.6237L72.7244 32.0799C72.7822 31.7155 72.9537 31.3788 73.2142 31.1179C73.4748 30.857 73.8111 30.6854 74.1751 30.6275L74.7182 30.538L74.1751 30.4554Z" stroke="#ECECEC" stroke-width="0.62" stroke-linecap="round" stroke-linejoin="round"/>
<path d="M61.7035 63.201C61.1491 63.112 60.637 62.8496 60.2406 62.4515C59.8441 62.0533 59.5837 61.5399 59.4965 60.9845L59.3658 60.1584L59.2421 60.9845C59.1534 61.5404 58.8917 62.0541 58.4941 62.4521C58.0965 62.8502 57.5834 63.1123 57.0282 63.201L56.2031 63.3249L57.0282 63.4557C57.5829 63.5431 58.0957 63.8038 58.4934 64.2007C58.8911 64.5976 59.1531 65.1103 59.2421 65.6654L59.3658 66.4914L59.4965 65.6654C59.584 65.1109 59.8447 64.5984 60.2412 64.2014C60.6377 63.8044 61.1496 63.5434 61.7035 63.4557L62.5285 63.3249L61.7035 63.201Z" stroke="#ECECEC" stroke-width="0.62" stroke-linecap="round" stroke-linejoin="round"/>
</svg>
