<svg width="84" height="83" viewBox="0 0 84 83" fill="none" xmlns="http://www.w3.org/2000/svg">
<mask id="mask0_2_5374" style="mask-type:luminance" maskUnits="userSpaceOnUse" x="0" y="0" width="83" height="83">
<path d="M41.8845 82.5424C64.4741 82.5424 82.7865 64.208 82.7865 41.5913C82.7865 18.9747 64.4741 0.640259 41.8845 0.640259C19.2949 0.640259 0.982422 18.9747 0.982422 41.5913C0.982422 64.208 19.2949 82.5424 41.8845 82.5424Z" fill="white"/>
</mask>
<g mask="url(#mask0_2_5374)">
<path d="M9.21242 53.8718C9.08815 54.0238 9.01688 54.2124 9.00944 54.4087C9.00199 54.605 9.05877 54.7984 9.17117 54.9594C10.3056 56.6115 17.1604 62.6623 25.631 63.9082C35.4835 65.3538 43.5072 64.156 50.032 61.8913C56.5568 59.6266 68.4582 55.5308 68.4582 55.5308C68.4582 55.5308 68.1694 54.9181 64.0854 54.3812C60.0014 53.8443 56.8318 51.6277 46.4843 49.5626C36.1367 47.4975 25.466 47.9931 17.0573 50.3061C11.667 51.8067 9.83121 53.1215 9.21242 53.8718Z" stroke="#ECECEC" stroke-width="0.62" stroke-linecap="round" stroke-linejoin="round"/>
<path d="M9.02637 54.6221C10.9472 54.2053 12.8958 53.9292 14.8567 53.7961" stroke="#ECECEC" stroke-width="0.62" stroke-linecap="round" stroke-linejoin="round"/>
<path d="M16.1497 58.0846C16.7421 58.0846 17.2223 57.6038 17.2223 57.0107C17.2223 56.4177 16.7421 55.9369 16.1497 55.9369C15.5574 55.9369 15.0771 56.4177 15.0771 57.0107C15.0771 57.6038 15.5574 58.0846 16.1497 58.0846Z" stroke="#ECECEC" stroke-width="0.62" stroke-linecap="round" stroke-linejoin="round"/>
<path d="M15.4893 57.4238C15.4893 57.2876 15.5296 57.1546 15.6051 57.0414C15.6807 56.9282 15.7881 56.8399 15.9137 56.7878C16.0393 56.7357 16.1776 56.7221 16.311 56.7486C16.4443 56.7752 16.5668 56.8408 16.663 56.937C16.7592 57.0333 16.8246 57.156 16.8511 57.2895C16.8777 57.423 16.8641 57.5614 16.812 57.6872C16.76 57.813 16.6719 57.9205 16.5588 57.9961C16.4457 58.0718 16.3128 58.1122 16.1768 58.1122C15.9945 58.1122 15.8196 58.0396 15.6906 57.9105C15.5617 57.7814 15.4893 57.6064 15.4893 57.4238Z" stroke="#ECECEC" stroke-width="0.62" stroke-linecap="round" stroke-linejoin="round"/>
<path d="M9.63184 55.5239C14.2 57.8379 19.0945 59.4396 24.1459 60.2736C30.0794 61.0996 40.9633 60.4388 53.0228 58.0846C65.0824 55.7304 68.4857 55.5239 68.4857 55.5239C68.8598 56.1567 69.3568 56.7081 69.9472 57.1455C70.5376 57.583 71.2096 57.8976 71.9234 58.0708" stroke="#ECECEC" stroke-width="0.62" stroke-linecap="round" stroke-linejoin="round"/>
<path d="M24.9291 60.37C25.7409 59.5658 26.3708 58.5966 26.7765 57.5279C27.1821 56.4591 27.354 55.3157 27.2805 54.1747C27.2495 53.1007 26.9492 52.0518 26.4073 51.1244C25.8655 50.197 25.0995 49.4209 24.1797 48.8674" stroke="#ECECEC" stroke-width="0.62" stroke-linecap="round" stroke-linejoin="round"/>
<path d="M66.6699 56.1434C66.6699 56.1434 69.2414 62.0909 74.7623 62.917L70.4308 55.5239C70.4308 55.5239 72.0809 50.8636 74.7623 47.8899C72.884 48.1258 71.1161 48.9084 69.6776 50.1405C68.2391 51.3727 67.1934 53.0003 66.6699 54.8218" stroke="#ECECEC" stroke-width="0.62" stroke-linecap="round" stroke-linejoin="round"/>
<path d="M67.1992 55.9576C67.1992 55.9576 70.135 60.8381 73.6415 61.0102" stroke="#ECECEC" stroke-width="0.62" stroke-linecap="round" stroke-linejoin="round"/>
<path d="M67.1992 54.9525C68.6176 52.3701 70.8982 50.3695 73.6415 49.301" stroke="#ECECEC" stroke-width="0.62" stroke-linecap="round" stroke-linejoin="round"/>
<path d="M68.4854 55.5239C68.7324 54.7454 69.1732 54.0426 69.7661 53.4814C70.359 52.9203 71.0847 52.5193 71.8749 52.3161" stroke="#ECECEC" stroke-width="0.62" stroke-linecap="round" stroke-linejoin="round"/>
<path d="M26.8682 64.0734C26.8682 64.0734 28.0576 68.2036 30.0378 69.3119C31.8783 67.534 34.2546 66.4158 36.7963 66.1316C40.9628 65.7186 43.9193 65.6222 45.1019 63.3024" stroke="#ECECEC" stroke-width="0.62" stroke-linecap="round" stroke-linejoin="round"/>
<path d="M42.2207 48.888C44.0252 47.0063 46.3624 45.7234 48.9174 45.2121C48.9174 45.2121 47.9273 46.7334 50.6088 47.8899C53.2902 49.0463 56.0197 50.8292 56.4048 52.1233" stroke="#ECECEC" stroke-width="0.62" stroke-linecap="round" stroke-linejoin="round"/>
<path d="M28.2568 64.2593C28.2568 64.2593 29.4807 67.9283 30.8214 68.6373" stroke="#ECECEC" stroke-width="0.62" stroke-linecap="round" stroke-linejoin="round"/>
<path d="M30.8213 64.5346C30.8213 64.5346 31.2751 67.054 32.4645 67.5153" stroke="#ECECEC" stroke-width="0.62" stroke-linecap="round" stroke-linejoin="round"/>
<path d="M33.3789 64.5346C33.3789 64.5346 33.8671 66.2349 34.7059 66.5584" stroke="#ECECEC" stroke-width="0.62" stroke-linecap="round" stroke-linejoin="round"/>
<path d="M35.9854 64.4933C36.2361 65.0899 36.5898 65.6375 37.0304 66.111" stroke="#ECECEC" stroke-width="0.62" stroke-linecap="round" stroke-linejoin="round"/>
<path d="M39.2852 64.2593C39.2852 64.2593 39.6427 65.5259 40.5915 65.7186" stroke="#ECECEC" stroke-width="0.62" stroke-linecap="round" stroke-linejoin="round"/>
<path d="M42.3926 63.8394C42.3926 63.8394 42.7982 64.927 43.307 64.9959" stroke="#ECECEC" stroke-width="0.62" stroke-linecap="round" stroke-linejoin="round"/>
<path d="M44.4209 49.2184C44.4209 49.2184 45.5141 47.0638 48.9106 45.2121" stroke="#ECECEC" stroke-width="0.62" stroke-linecap="round" stroke-linejoin="round"/>
<path d="M47.4258 49.8035C47.4258 49.8035 48.244 47.8554 49.4884 47.2428" stroke="#ECECEC" stroke-width="0.62" stroke-linecap="round" stroke-linejoin="round"/>
<path d="M50.3477 50.4231C50.6546 49.6375 51.1945 48.9649 51.8946 48.4957" stroke="#ECECEC" stroke-width="0.62" stroke-linecap="round" stroke-linejoin="round"/>
<path d="M52.9609 51.0908C53.2564 50.5993 53.5996 50.1382 53.9854 49.7141" stroke="#ECECEC" stroke-width="0.62" stroke-linecap="round" stroke-linejoin="round"/>
<path d="M27.6104 48.4956C27.6104 48.4956 31.5638 44.3035 32.1825 44.3654C32.8013 44.4274 32.1 46.2653 33.3789 46.6783C34.6577 47.0914 33.7501 48.3235 33.7501 48.3235" stroke="#ECECEC" stroke-width="0.62" stroke-linecap="round" stroke-linejoin="round"/>
<path d="M29.2539 48.3029C30.2895 47.2955 31.3921 46.3594 32.5541 45.5012" stroke="#ECECEC" stroke-width="0.62" stroke-linecap="round" stroke-linejoin="round"/>
<path d="M31.6396 48.3029L33.3791 46.6508" stroke="#ECECEC" stroke-width="0.62" stroke-linecap="round" stroke-linejoin="round"/>
<path d="M74.5634 29.3108C74.6806 29.1537 74.7438 28.963 74.7438 28.767C74.7438 28.5709 74.6806 28.3802 74.5634 28.2231C73.4358 26.5711 66.5741 20.5203 58.1035 19.2744C48.2579 17.8288 40.2273 19.0265 33.7025 21.2913C27.1777 23.556 15.2832 27.6518 15.2832 27.6518C15.2832 27.6518 15.572 28.2713 19.6491 28.8083C23.7262 29.3452 26.9027 31.5617 37.2503 33.5924C47.5978 35.6231 58.2685 35.1619 66.6772 32.849C72.1088 31.3759 73.9377 30.0611 74.5634 29.3108Z" stroke="#ECECEC" stroke-width="0.62" stroke-linecap="round" stroke-linejoin="round"/>
<path d="M74.7423 28.5811C72.83 28.9897 70.8907 29.2589 68.9395 29.3865" stroke="#ECECEC" stroke-width="0.62" stroke-linecap="round" stroke-linejoin="round"/>
<path d="M68.692 26.1718C68.692 26.3842 68.6291 26.5918 68.5113 26.7684C68.3934 26.945 68.2259 27.0827 68.0299 27.164C67.8339 27.2452 67.6183 27.2665 67.4102 27.225C67.2022 27.1836 67.011 27.0813 66.861 26.9312C66.711 26.781 66.6089 26.5896 66.5675 26.3813C66.5261 26.173 66.5474 25.9571 66.6285 25.7609C66.7097 25.5647 66.8472 25.3969 67.0235 25.2789C67.1999 25.1609 67.4073 25.098 67.6194 25.098C67.9039 25.098 68.1767 25.2111 68.3779 25.4125C68.579 25.6139 68.692 25.887 68.692 26.1718Z" stroke="#ECECEC" stroke-width="0.62" stroke-linecap="round" stroke-linejoin="round"/>
<path d="M68.2514 25.7106C68.2514 25.8359 68.2143 25.9583 68.1448 26.0625C68.0753 26.1666 67.9765 26.2478 67.8609 26.2957C67.7453 26.3437 67.6182 26.3562 67.4955 26.3318C67.3728 26.3073 67.2601 26.247 67.1716 26.1585C67.0831 26.0699 67.0229 25.957 66.9985 25.8342C66.9741 25.7113 66.9866 25.584 67.0345 25.4683C67.0823 25.3526 67.1634 25.2537 67.2674 25.1841C67.3715 25.1145 67.4937 25.0773 67.6189 25.0773C67.7866 25.0773 67.9475 25.1441 68.0661 25.2628C68.1848 25.3816 68.2514 25.5427 68.2514 25.7106Z" stroke="#ECECEC" stroke-width="0.62" stroke-linecap="round" stroke-linejoin="round"/>
<path d="M74.1372 27.6587C69.5695 25.3436 64.6748 23.7418 59.6232 22.909C53.6897 22.0829 42.8058 22.7438 30.7463 25.098C18.6867 27.4522 15.2903 27.6587 15.2903 27.6587C14.9161 27.0259 14.4192 26.4745 13.8288 26.037C13.2383 25.5996 12.5664 25.285 11.8525 25.1118" stroke="#ECECEC" stroke-width="0.62" stroke-linecap="round" stroke-linejoin="round"/>
<path d="M58.8601 22.8126C58.0484 23.6168 57.4184 24.586 57.0128 25.6547C56.6071 26.7235 56.4352 27.867 56.5087 29.0079C56.5391 30.0813 56.8383 31.1297 57.3789 32.0571C57.9195 32.9844 58.6842 33.7609 59.6027 34.3153" stroke="#ECECEC" stroke-width="0.62" stroke-linecap="round" stroke-linejoin="round"/>
<path d="M17.1052 27.0392C17.1052 27.0392 14.5337 21.0917 9.00586 20.2725L13.3374 27.6587C13.3374 27.6587 11.6873 32.319 9.00586 35.2927C10.8849 35.0594 12.6542 34.2788 14.094 33.0477C15.5338 31.8166 16.5809 30.1893 17.1052 28.3677" stroke="#ECECEC" stroke-width="0.62" stroke-linecap="round" stroke-linejoin="round"/>
<path d="M16.5761 27.2251C16.5761 27.2251 13.6334 22.3514 10.127 22.1724" stroke="#ECECEC" stroke-width="0.62" stroke-linecap="round" stroke-linejoin="round"/>
<path d="M16.5761 28.23C15.1531 30.8129 12.8712 32.815 10.127 33.8884" stroke="#ECECEC" stroke-width="0.62" stroke-linecap="round" stroke-linejoin="round"/>
<path d="M15.3174 27.6587C15.0697 28.438 14.6279 29.1414 14.0337 29.7026C13.4395 30.2638 12.7124 30.6643 11.9209 30.8665" stroke="#ECECEC" stroke-width="0.62" stroke-linecap="round" stroke-linejoin="round"/>
<path d="M56.9076 19.1092C56.9076 19.1092 55.7112 14.9445 53.7311 13.8707C51.8906 15.6486 49.5143 16.7668 46.9726 17.0509C42.806 17.464 39.8496 17.5603 38.667 19.887" stroke="#ECECEC" stroke-width="0.62" stroke-linecap="round" stroke-linejoin="round"/>
<path d="M41.5473 34.2946C39.7447 36.1788 37.4067 37.4622 34.8507 37.9705C34.8507 37.9705 35.8407 36.4492 33.1593 35.2928C30.4779 34.1363 27.7552 32.3534 27.3633 31.0593" stroke="#ECECEC" stroke-width="0.62" stroke-linecap="round" stroke-linejoin="round"/>
<path d="M55.5118 18.9508C55.5118 18.9508 54.288 15.2818 52.9473 14.5728" stroke="#ECECEC" stroke-width="0.62" stroke-linecap="round" stroke-linejoin="round"/>
<path d="M52.947 18.648C52.947 18.648 52.4932 16.1286 51.3037 15.6674" stroke="#ECECEC" stroke-width="0.62" stroke-linecap="round" stroke-linejoin="round"/>
<path d="M50.3895 18.648C50.3895 18.648 49.9013 16.9477 49.0625 16.631" stroke="#ECECEC" stroke-width="0.62" stroke-linecap="round" stroke-linejoin="round"/>
<path d="M47.7902 18.6892C47.5375 18.0922 47.1813 17.5446 46.7383 17.0716" stroke="#ECECEC" stroke-width="0.62" stroke-linecap="round" stroke-linejoin="round"/>
<path d="M44.4831 18.9164C44.4831 18.9164 44.1324 17.6498 43.1836 17.4571" stroke="#ECECEC" stroke-width="0.62" stroke-linecap="round" stroke-linejoin="round"/>
<path d="M41.3754 19.3432C41.3754 19.3432 40.9697 18.2556 40.4609 18.1868" stroke="#ECECEC" stroke-width="0.62" stroke-linecap="round" stroke-linejoin="round"/>
<path d="M39.3402 33.9711C39.3402 33.9711 38.2471 36.1188 34.8506 37.9705" stroke="#ECECEC" stroke-width="0.62" stroke-linecap="round" stroke-linejoin="round"/>
<path d="M36.3429 33.4135C36.3429 33.4135 35.5247 35.3547 34.2803 35.9742" stroke="#ECECEC" stroke-width="0.62" stroke-linecap="round" stroke-linejoin="round"/>
<path d="M33.421 32.7595C33.117 33.5467 32.5796 34.2217 31.8809 34.6938" stroke="#ECECEC" stroke-width="0.62" stroke-linecap="round" stroke-linejoin="round"/>
<path d="M30.8076 32.0918C30.5121 32.5833 30.169 33.0444 29.7832 33.4685" stroke="#ECECEC" stroke-width="0.62" stroke-linecap="round" stroke-linejoin="round"/>
<path d="M56.1641 34.6938C56.1641 34.6938 52.2038 38.8791 51.585 38.8241C50.9662 38.769 51.6675 36.9311 50.3887 36.518C49.1099 36.105 50.0174 34.8728 50.0174 34.8728" stroke="#ECECEC" stroke-width="0.62" stroke-linecap="round" stroke-linejoin="round"/>
<path d="M54.5141 34.8866C53.4796 35.8932 52.377 36.8271 51.2139 37.6814" stroke="#ECECEC" stroke-width="0.62" stroke-linecap="round" stroke-linejoin="round"/>
<path d="M52.1222 34.8866L50.3896 36.5318" stroke="#ECECEC" stroke-width="0.62" stroke-linecap="round" stroke-linejoin="round"/>
<path d="M64.883 44.2966C65.2474 44.2397 65.5843 44.0684 65.845 43.8073C66.1058 43.5462 66.2769 43.209 66.3337 42.8442L66.4231 42.3004L66.5056 42.8442C66.5624 43.209 66.7336 43.5462 66.9943 43.8073C67.2551 44.0684 67.592 44.2397 67.9563 44.2966L68.4995 44.3861L67.9563 44.4687C67.5924 44.5266 67.2561 44.6983 66.9955 44.9592C66.7349 45.2201 66.5634 45.5568 66.5056 45.9212L66.4231 46.465L66.3337 45.9212C66.2759 45.5568 66.1045 45.2201 65.8439 44.9592C65.5833 44.6983 65.247 44.5266 64.883 44.4687L64.3398 44.3861L64.883 44.2966Z" stroke="#ECECEC" stroke-width="0.62" stroke-linecap="round" stroke-linejoin="round"/>
<path d="M14.094 41.2746C14.4571 41.2148 14.7923 41.0425 15.0526 40.7819C15.3128 40.5214 15.4849 40.1858 15.5447 39.8222L15.6272 39.2784L15.7097 39.8222C15.7699 40.1867 15.943 40.5231 16.2046 40.7837C16.4661 41.0444 16.8029 41.2161 17.1673 41.2746L17.7105 41.3573L17.1673 41.4467C16.8025 41.5043 16.4652 41.6757 16.2034 41.9365C15.9417 42.1974 15.7689 42.5343 15.7097 42.8992L15.6272 43.443L15.5447 42.9199C15.4855 42.5549 15.3127 42.218 15.0509 41.9572C14.7892 41.6964 14.4519 41.525 14.0871 41.4674L13.5439 41.3779L14.094 41.2746Z" stroke="#ECECEC" stroke-width="0.62" stroke-linecap="round" stroke-linejoin="round"/>
<path d="M24.9159 14.0084C25.4702 13.9217 25.9826 13.661 26.3793 13.2639C26.7759 12.8667 27.0364 12.3536 27.1229 11.7987L27.2536 10.9727L27.3841 11.7987C27.4707 12.3536 27.7311 12.8667 28.1278 13.2639C28.5245 13.661 29.0369 13.9217 29.5912 14.0084L30.4162 14.1392L29.5912 14.2699C29.0373 14.3576 28.5254 14.6186 28.1289 15.0156C27.7324 15.4126 27.4717 15.9251 27.3841 16.4796L27.2536 17.3057L27.1229 16.4796C27.0354 15.9251 26.7746 15.4126 26.3781 15.0156C25.9816 14.6186 25.4697 14.3576 24.9159 14.2699L24.0908 14.1392L24.9159 14.0084Z" stroke="#ECECEC" stroke-width="0.62" stroke-linecap="round" stroke-linejoin="round"/>
<path d="M46.1199 73.3664C46.6738 73.2787 47.1857 73.0177 47.5822 72.6207C47.9787 72.2237 48.2394 71.7112 48.327 71.1567L48.4576 70.3307L48.5882 71.1567C48.6748 71.7117 48.9352 72.2247 49.3319 72.6219C49.7285 73.019 50.241 73.2798 50.7953 73.3664L51.6203 73.4972L50.7953 73.628C50.2406 73.7136 49.7276 73.974 49.3307 74.3713C48.9339 74.7686 48.6738 75.2823 48.5882 75.8376L48.4576 76.6637L48.327 75.8376C48.2404 75.2827 47.98 74.7696 47.5834 74.3725C47.1867 73.9753 46.6742 73.7146 46.1199 73.628L45.2949 73.4972L46.1199 73.3664Z" stroke="#ECECEC" stroke-width="0.62" stroke-linecap="round" stroke-linejoin="round"/>
</g>
<path d="M41.8845 82.5424C64.4741 82.5424 82.7866 64.208 82.7866 41.5913C82.7866 18.9747 64.4741 0.640259 41.8845 0.640259C19.2949 0.640259 0.982422 18.9747 0.982422 41.5913C0.982422 64.208 19.2949 82.5424 41.8845 82.5424Z" stroke="#ECECEC" stroke-width="0.62" stroke-linecap="round" stroke-linejoin="round"/>
</svg>
