<svg width="84" height="83" viewBox="0 0 84 83" fill="none" xmlns="http://www.w3.org/2000/svg">
<path d="M42.115 82.5424C64.7045 82.5424 83.017 64.208 83.017 41.5913C83.017 18.9747 64.7045 0.640259 42.115 0.640259C19.5254 0.640259 1.21289 18.9747 1.21289 41.5913C1.21289 64.208 19.5254 82.5424 42.115 82.5424Z" stroke="#ECECEC" stroke-width="0.62" stroke-linecap="round" stroke-linejoin="round"/>
<path d="M42.1152 73.1875V14.4834" stroke="#ECECEC" stroke-width="0.73" stroke-linecap="round" stroke-linejoin="round"/>
<path d="M73.9556 38.6176C73.1313 39.8659 71.895 40.7845 70.4629 41.2127C68.8422 41.6925 67.1368 41.8146 65.4644 41.5707C63.8261 41.3659 62.2133 40.9922 60.6516 40.4556C59.9022 40.2077 59.1184 39.9048 58.4102 39.6226C57.702 39.3404 57.0351 39.0857 56.3476 38.8241C53.6505 37.7887 50.8312 37.1062 47.9595 36.7934C45.9915 36.6034 44.0057 36.8381 42.136 37.4818V37.5644C40.2632 36.9241 38.2759 36.6895 36.3056 36.876C33.4343 37.1977 30.6169 37.8919 27.9244 38.9411C27.2369 39.1958 26.5494 39.4643 25.8618 39.7328C25.1743 40.0012 24.3836 40.3179 23.6135 40.5657C22.0516 41.1 20.4388 41.4714 18.8007 41.674C17.1295 41.9261 15.4233 41.8086 13.8023 41.3298C12.3713 40.8989 11.1374 39.9778 10.3164 38.7277C11.3184 39.7721 12.6346 40.4588 14.0635 40.6827C15.5201 40.9034 17.0076 40.7928 18.4157 40.3592C19.802 39.9726 21.1434 39.4395 22.4172 38.769C23.0566 38.4455 23.6342 38.1151 24.2667 37.7365C24.8992 37.3579 25.5662 36.9793 26.2331 36.6007C29.0717 34.9748 32.1179 33.7428 35.2881 32.9386C39.8115 31.9148 44.5027 31.8843 49.039 32.8491C52.208 33.65 55.2524 34.8821 58.0871 36.5112C58.7746 36.8829 59.414 37.2615 60.0603 37.6401C60.7066 38.0187 61.2773 38.3285 61.9098 38.6864C63.1849 39.3576 64.5289 39.8885 65.9182 40.2697C67.323 40.6954 68.8037 40.8082 70.2566 40.6001C71.6707 40.3554 72.9681 39.66 73.9556 38.6176Z" stroke="#ECECEC" stroke-width="0.62" stroke-linecap="round" stroke-linejoin="round"/>
<path d="M42.1149 27.0874C39.0416 23.143 42.1149 19.3088 42.1149 19.3088C42.1149 19.3088 45.202 23.1293 42.1149 27.0874Z" fill="#352C83" stroke="#ECECEC" stroke-width="0.62" stroke-linecap="round" stroke-linejoin="round"/>
<path d="M42.1156 27.0874C37.1584 26.4747 36.6152 21.5804 36.6152 21.5804C36.6152 21.5804 41.5106 22.1036 42.1156 27.0874Z" fill="#352C83" stroke="#ECECEC" stroke-width="0.62" stroke-linecap="round" stroke-linejoin="round"/>
<path d="M42.1152 27.0874C42.7271 22.1243 47.6156 21.5804 47.6156 21.5804C47.6156 21.5804 47.0862 26.4679 42.1152 27.0874Z" fill="#352C83" stroke="#ECECEC" stroke-width="0.62" stroke-linecap="round" stroke-linejoin="round"/>
<path d="M45.4425 14.2424L42.1148 8.46014L38.7871 14.2424H45.4425Z" fill="#352C83" stroke="#ECECEC" stroke-width="0.62" stroke-linecap="round" stroke-linejoin="round"/>
<path d="M45.4425 74.7294L42.1148 68.9402L38.7871 74.7294L42.1148 73.5178L45.4425 74.7294Z" fill="#352C83" stroke="#ECECEC" stroke-width="0.62" stroke-linecap="round" stroke-linejoin="round"/>
<path d="M45.4425 70.0554L42.1148 64.2731L38.7871 70.0554L42.1148 68.8507L45.4425 70.0554Z" fill="#352C83" stroke="#ECECEC" stroke-width="0.62" stroke-linecap="round" stroke-linejoin="round"/>
<path d="M67.8157 41.6671L42.1152 64.2731L16.4629 41.7772" stroke="#ECECEC" stroke-width="0.62" stroke-linecap="round" stroke-linejoin="round"/>
<path d="M61.8338 22.3308C62.3877 22.2432 62.8996 21.9821 63.2961 21.5852C63.6926 21.1882 63.9533 20.6757 64.0409 20.1212L64.1715 19.2951L64.3021 20.1212C64.3897 20.6757 64.6504 21.1882 65.0469 21.5852C65.4434 21.9821 65.9553 22.2432 66.5092 22.3308L67.3342 22.4616L66.5092 22.5924C65.9553 22.68 65.4434 22.9411 65.0469 23.3381C64.6504 23.735 64.3897 24.2475 64.3021 24.8021L64.1715 25.6281L64.0409 24.8021C63.9533 24.2475 63.6926 23.735 63.2961 23.3381C62.8996 22.9411 62.3877 22.68 61.8338 22.5924L61.0088 22.4616L61.8338 22.3308Z" stroke="#ECECEC" stroke-width="0.62" stroke-linecap="round" stroke-linejoin="round"/>
<path d="M58.8156 64.1836C59.18 64.1267 59.5169 63.9554 59.7776 63.6943C60.0384 63.4332 60.2095 63.0959 60.2663 62.7311L60.3557 62.1873L60.4382 62.7311C60.496 63.0955 60.6675 63.4323 60.9281 63.6931C61.1887 63.954 61.525 64.1257 61.8889 64.1836L62.4321 64.2731L61.8889 64.3557C61.5254 64.4146 61.1896 64.5866 60.9292 64.8473C60.6688 65.108 60.497 65.4442 60.4382 65.8081L60.3557 66.352L60.2663 65.8081C60.2085 65.4438 60.0371 65.107 59.7765 64.8461C59.5159 64.5852 59.1796 64.4136 58.8156 64.3557L58.2725 64.2731L58.8156 64.1836Z" stroke="#ECECEC" stroke-width="0.62" stroke-linecap="round" stroke-linejoin="round"/>
<path d="M22.3968 22.3308C21.843 22.2432 21.3311 21.9821 20.9346 21.5852C20.5381 21.1882 20.2774 20.6757 20.1898 20.1212L20.0592 19.2951L19.9286 20.1212C19.842 20.6761 19.5816 21.1892 19.1849 21.5863C18.7883 21.9835 18.2758 22.2442 17.7215 22.3308L16.8965 22.4616L17.7215 22.5924C18.2758 22.679 18.7883 22.9397 19.1849 23.3369C19.5816 23.7341 19.842 24.2471 19.9286 24.8021L20.0592 25.6281L20.1898 24.8021C20.2774 24.2475 20.5381 23.735 20.9346 23.3381C21.3311 22.9411 21.843 22.68 22.3968 22.5924L23.2219 22.4616L22.3968 22.3308Z" stroke="#ECECEC" stroke-width="0.62" stroke-linecap="round" stroke-linejoin="round"/>
<path d="M25.4144 64.1836C25.0504 64.1257 24.7141 63.954 24.4535 63.6931C24.193 63.4323 24.0215 63.0955 23.9637 62.7311L23.8812 62.1873L23.7918 62.7311C23.7346 63.0969 23.5624 63.4349 23.3003 63.6961C23.0382 63.9573 22.6998 64.1281 22.3342 64.1836L21.791 64.2731L22.3342 64.3557C22.6981 64.4136 23.0345 64.5852 23.295 64.8461C23.5556 65.107 23.7271 65.4438 23.7849 65.8081L23.8743 66.352L23.9568 65.8081C24.0156 65.4442 24.1874 65.108 24.4478 64.8473C24.7082 64.5866 25.044 64.4146 25.4075 64.3557L25.9507 64.2731L25.4144 64.1836Z" stroke="#ECECEC" stroke-width="0.62" stroke-linecap="round" stroke-linejoin="round"/>
</svg>
