<svg width="84" height="84" viewBox="0 0 84 84" fill="none" xmlns="http://www.w3.org/2000/svg">
<path d="M41.8845 83.033C64.4741 83.033 82.7866 64.6986 82.7866 42.0819C82.7866 19.4653 64.4741 1.13086 41.8845 1.13086C19.2949 1.13086 0.982422 19.4653 0.982422 42.0819C0.982422 64.6986 19.2949 83.033 41.8845 83.033Z" stroke="#ECECEC" stroke-width="0.62" stroke-linecap="round" stroke-linejoin="round"/>
<path d="M47.0962 38.3441C48.2162 38.4849 49.3433 38.5607 50.4721 38.5712C51.5115 38.6209 52.5525 38.5118 53.5591 38.2477C53.5591 38.2477 57.1756 37.6144 58.5163 35.8384C59.4688 34.4271 60.223 32.8915 60.7578 31.2745C61.3456 30.0259 61.6843 28.6744 61.7547 27.2958C61.6859 25.6024 61.0672 25.4165 61.0672 25.4165C61.0672 25.4165 59.692 29.5467 59.4927 30.6206C58.9952 31.1715 58.5358 31.7557 58.1176 32.369C57.32 33.5117 56.2543 35.508 56.2543 35.508C55.283 35.7899 54.3569 36.2095 53.5042 36.7539C53.5042 36.7539 49.867 36.3478 46.835 36.1895" stroke="#ECECEC" stroke-width="0.62" stroke-linecap="round" stroke-linejoin="round"/>
<path d="M59.5479 30.6205C59.5479 30.6205 60.1391 30.4897 60.7854 31.2745" stroke="#ECECEC" stroke-width="0.62" stroke-linecap="round" stroke-linejoin="round"/>
<path d="M56.2822 35.5079C56.9541 35.6174 57.5999 35.8508 58.1867 36.1963" stroke="#ECECEC" stroke-width="0.62" stroke-linecap="round" stroke-linejoin="round"/>
<path d="M53.5596 38.2477C53.6462 37.7535 53.6462 37.2481 53.5596 36.7539" stroke="#ECECEC" stroke-width="0.62" stroke-linecap="round" stroke-linejoin="round"/>
<path d="M47.1719 41.7996C48.1599 42.2598 49.1747 42.6598 50.2108 42.9974C51.1833 43.3612 52.2061 43.5725 53.2429 43.6238C53.2429 43.6238 56.8869 44.1332 58.702 42.846C60.0383 41.7912 61.2249 40.5592 62.2291 39.1838C63.167 38.1735 63.9002 36.9906 64.388 35.7007C64.8349 34.0693 64.333 33.7113 64.333 33.7113C64.333 33.7113 61.7685 37.2495 61.2459 38.1857C60.6052 38.5542 59.9917 38.9683 59.4102 39.4248C58.2964 40.2783 56.66 41.8547 56.66 41.8547C55.6514 41.8272 54.6441 41.9455 53.6692 42.2058C53.6692 42.2058 49.8464 40.6156 47 39.5349" stroke="#ECECEC" stroke-width="0.62" stroke-linecap="round" stroke-linejoin="round"/>
<path d="M61.2666 38.1857C61.2666 38.1857 61.8716 38.2408 62.2498 39.1839" stroke="#ECECEC" stroke-width="0.62" stroke-linecap="round" stroke-linejoin="round"/>
<path d="M56.6943 41.8547C57.3009 42.167 57.8441 42.5895 58.2963 43.1007" stroke="#ECECEC" stroke-width="0.62" stroke-linecap="round" stroke-linejoin="round"/>
<path d="M53.2637 43.6238C53.4911 43.1802 53.64 42.7004 53.7037 42.2058" stroke="#ECECEC" stroke-width="0.62" stroke-linecap="round" stroke-linejoin="round"/>
<path d="M47.1309 45.9849C47.5503 46.3842 47.949 46.749 48.2997 47.0381C49.0683 47.7395 49.9373 48.3219 50.878 48.766C50.878 48.766 54.0613 50.597 56.2202 50.0945C57.8564 49.622 59.4203 48.9272 60.868 48.0294C62.1168 47.45 63.2403 46.6315 64.1751 45.6201C65.2064 44.2434 64.8626 43.7477 64.8626 43.7477C64.8626 43.7477 61.1499 46.0607 60.318 46.7353C59.5841 46.8362 58.8582 46.988 58.1453 47.1896C56.7703 47.5613 54.7076 48.408 54.7076 48.408C53.7812 48.0042 52.8018 47.7353 51.7993 47.6095C51.7993 47.6095 49.4135 45.0901 47.1859 43.0181" stroke="#ECECEC" stroke-width="0.62" stroke-linecap="round" stroke-linejoin="round"/>
<path d="M60.332 46.7353C60.332 46.7353 60.8683 47.0106 60.8683 48.0294" stroke="#ECECEC" stroke-width="0.62" stroke-linecap="round" stroke-linejoin="round"/>
<path d="M54.7354 48.408C55.1762 48.9303 55.5207 49.527 55.7529 50.1702" stroke="#ECECEC" stroke-width="0.62" stroke-linecap="round" stroke-linejoin="round"/>
<path d="M50.8779 48.766C51.2525 48.436 51.5686 48.045 51.813 47.6095" stroke="#ECECEC" stroke-width="0.62" stroke-linecap="round" stroke-linejoin="round"/>
<path d="M46.9043 51.7948C47.0899 52.0288 47.2618 52.2491 47.4268 52.435C48.0609 53.2605 48.8167 53.9847 49.6682 54.5827C49.6682 54.5827 52.4941 56.9369 54.708 56.813C56.3997 56.6295 58.0583 56.2149 59.6376 55.5808C60.97 55.2233 62.2195 54.6083 63.316 53.7704C64.5605 52.6208 64.3198 52.0564 64.3198 52.0564C64.3198 52.0564 60.2702 53.6947 59.3351 54.2109C58.5963 54.1827 57.8564 54.208 57.1212 54.2867C55.7461 54.4175 53.5185 54.8924 53.5185 54.8924C52.6686 54.3328 51.7422 53.8992 50.7683 53.6052C50.7683 53.6052 48.9395 50.8517 47.1037 48.4011" stroke="#ECECEC" stroke-width="0.62" stroke-linecap="round" stroke-linejoin="round"/>
<path d="M59.335 54.2178C59.335 54.2178 59.8173 54.5827 59.6382 55.5946" stroke="#ECECEC" stroke-width="0.62" stroke-linecap="round" stroke-linejoin="round"/>
<path d="M53.5176 54.8993C53.8597 55.4882 54.0926 56.1342 54.2051 56.8061" stroke="#ECECEC" stroke-width="0.62" stroke-linecap="round" stroke-linejoin="round"/>
<path d="M49.668 54.5895C50.097 54.3309 50.4785 54.0002 50.7956 53.6121" stroke="#ECECEC" stroke-width="0.62" stroke-linecap="round" stroke-linejoin="round"/>
<path d="M36.6731 38.3096C35.5528 38.447 34.4259 38.5228 33.2973 38.5368C32.2575 38.5833 31.2167 38.4718 30.2102 38.2064C30.2102 38.2064 26.5937 37.5731 25.2599 35.804C24.3044 34.3909 23.5479 32.8529 23.0116 31.2332C22.4244 29.9868 22.0858 28.6376 22.0146 27.2613C22.0834 25.561 22.7022 25.3752 22.7022 25.3752C22.7022 25.3752 24.0773 29.5054 24.2767 30.5861C24.778 31.1313 25.2377 31.7135 25.6518 32.3277C26.4493 33.4773 27.515 35.4736 27.515 35.4736C28.4869 35.7542 29.4132 36.1738 30.2652 36.7195C30.2652 36.7195 33.9023 36.3065 36.9413 36.1482" stroke="#ECECEC" stroke-width="0.62" stroke-linecap="round" stroke-linejoin="round"/>
<path d="M24.2493 30.5861C24.2493 30.5861 23.658 30.4485 23.0117 31.2332" stroke="#ECECEC" stroke-width="0.62" stroke-linecap="round" stroke-linejoin="round"/>
<path d="M27.4875 35.4735C26.8162 35.5851 26.1708 35.8184 25.583 36.1619" stroke="#ECECEC" stroke-width="0.62" stroke-linecap="round" stroke-linejoin="round"/>
<path d="M30.2099 38.2064C30.1279 37.7141 30.1279 37.2117 30.2099 36.7195" stroke="#ECECEC" stroke-width="0.62" stroke-linecap="round" stroke-linejoin="round"/>
<path d="M36.5772 41.7584C35.5916 42.2184 34.579 42.6184 33.5451 42.9561C32.5695 43.3183 31.5451 43.5318 30.5062 43.5894C30.5062 43.5894 26.8622 44.0919 25.054 42.8116C23.7133 41.7569 22.5241 40.5223 21.52 39.1426C20.5816 38.1353 19.8483 36.9545 19.3611 35.6663C18.9142 34.028 19.4161 33.67 19.4161 33.67C19.4161 33.67 21.9875 37.2083 22.5032 38.1513C23.1476 38.5173 23.7636 38.9315 24.3458 39.3904C25.4527 40.2371 27.096 41.8134 27.096 41.8134C28.1046 41.7857 29.112 41.9039 30.0868 42.1645C30.0868 42.1645 33.9164 40.5744 36.756 39.4936" stroke="#ECECEC" stroke-width="0.62" stroke-linecap="round" stroke-linejoin="round"/>
<path d="M22.5027 38.1513C22.5027 38.1513 21.9046 38.1995 21.5195 39.1426" stroke="#ECECEC" stroke-width="0.62" stroke-linecap="round" stroke-linejoin="round"/>
<path d="M27.0746 41.8134C26.4695 42.1278 25.9266 42.55 25.4727 43.0594" stroke="#ECECEC" stroke-width="0.62" stroke-linecap="round" stroke-linejoin="round"/>
<path d="M30.5064 43.5894C30.2784 43.1436 30.1295 42.6614 30.0664 42.1645" stroke="#ECECEC" stroke-width="0.62" stroke-linecap="round" stroke-linejoin="round"/>
<path d="M36.6452 45.9436C36.2258 46.3498 35.8202 46.7146 35.4695 46.9968C34.705 47.7002 33.8379 48.2828 32.8981 48.7246C32.8981 48.7246 29.7148 50.5626 27.549 50.0532C25.9128 49.5807 24.3489 48.8859 22.9012 47.9881C21.6535 47.4069 20.5303 46.5887 19.5941 45.5788C18.5628 44.2021 18.9066 43.7133 18.9066 43.7133C18.9066 43.7133 22.6193 46.0262 23.4512 46.7008C24.1858 46.7974 24.9121 46.9493 25.6239 47.1552C26.9989 47.52 29.0616 48.3667 29.0616 48.3667C29.9854 47.9623 30.9626 47.6934 31.963 47.5682C31.963 47.5682 34.3488 45.0556 36.5833 42.9836" stroke="#ECECEC" stroke-width="0.62" stroke-linecap="round" stroke-linejoin="round"/>
<path d="M23.4376 46.7009C23.4376 46.7009 22.9014 46.9762 22.9014 47.9881" stroke="#ECECEC" stroke-width="0.62" stroke-linecap="round" stroke-linejoin="round"/>
<path d="M29.0557 48.3529C28.6123 48.8735 28.2674 49.4706 28.0381 50.1151" stroke="#ECECEC" stroke-width="0.62" stroke-linecap="round" stroke-linejoin="round"/>
<path d="M32.899 48.7246C32.5185 48.3985 32.1995 48.0069 31.957 47.5682" stroke="#ECECEC" stroke-width="0.62" stroke-linecap="round" stroke-linejoin="round"/>
<path d="M36.859 51.7948C36.6802 52.0357 36.5014 52.2491 36.3364 52.435C35.7039 53.2472 34.953 53.9596 34.1088 54.5482C34.1088 54.5482 31.2898 56.9094 29.0691 56.7786C27.3774 56.5951 25.7187 56.1805 24.1394 55.5464C22.8087 55.1878 21.5598 54.5755 20.461 53.7429C19.2166 52.5933 19.4572 52.0219 19.4572 52.0219C19.4572 52.0219 23.5068 53.6603 24.4419 54.1834C25.183 54.1552 25.9252 54.1805 26.6627 54.2591C28.0377 54.3899 30.2585 54.8649 30.2585 54.8649C31.1085 54.3053 32.0348 53.8717 33.0087 53.5776C33.0087 53.5776 34.8376 50.7898 36.6802 48.3667" stroke="#ECECEC" stroke-width="0.62" stroke-linecap="round" stroke-linejoin="round"/>
<path d="M24.4359 54.1834C24.4359 54.1834 23.9535 54.5482 24.1327 55.5601" stroke="#ECECEC" stroke-width="0.62" stroke-linecap="round" stroke-linejoin="round"/>
<path d="M30.252 54.8649C29.9069 55.4524 29.6738 56.0989 29.5645 56.7716" stroke="#ECECEC" stroke-width="0.62" stroke-linecap="round" stroke-linejoin="round"/>
<path d="M34.109 54.5482C33.681 54.291 33.2997 53.9628 32.9814 53.5776" stroke="#ECECEC" stroke-width="0.62" stroke-linecap="round" stroke-linejoin="round"/>
<path d="M43.7346 26.4766C43.3064 26.136 42.7808 25.9411 42.2343 25.9201C41.6878 25.899 41.1488 26.053 40.6957 26.3595C39.3116 27.2982 38.33 28.7232 37.9455 30.3521C37.0173 33.911 34.7347 56.0007 40.2282 61.5008C40.2282 61.5008 39.2518 72.852 42.3595 76.817C45.4672 80.782 52.9065 78.4278 53.6697 73.9396C53.6697 73.9396 55.4436 73.0103 55.4436 69.7061C55.4436 66.402 50.5413 66.574 49.6131 64.6328C49.0529 63.5971 48.9008 62.3886 49.1869 61.2461C48.3084 62.1392 47.658 63.2312 47.2905 64.4294C46.9231 65.6277 46.8495 66.897 47.0761 68.1298C47.8324 72.3632 50.115 73.8019 51.8889 73.8845C51.6385 74.1707 51.4088 74.4744 51.2014 74.7932C50.6383 75.4257 49.9306 75.9123 49.1387 76.2112C48.6295 76.3928 48.0879 76.4651 47.549 76.4236C47.0101 76.3821 46.4859 76.2277 46.0104 75.9703C43.7278 74.6624 43.5765 70.2775 43.3771 67.9921C43.2121 66.1266 43.1708 63.6554 43.1983 61.7968C43.1983 61.7968 45.7904 60.8606 46.471 56.8887C47.028 53.3023 48.5474 30.5999 43.7346 26.4766Z" stroke="#ECECEC" stroke-width="0.62" stroke-linecap="round" stroke-linejoin="round"/>
<path d="M44.0503 26.8208C44.0503 26.8208 44.8754 26.8827 44.7379 24.6868C44.5171 25.3429 44.1311 25.9308 43.6172 26.394" stroke="#ECECEC" stroke-width="0.62" stroke-linecap="round" stroke-linejoin="round"/>
<path d="M39.9661 26.8208C39.9661 26.8208 39.1342 26.8827 39.2786 24.6868C39.4993 25.3429 39.8853 25.9308 40.3993 26.394" stroke="#ECECEC" stroke-width="0.62" stroke-linecap="round" stroke-linejoin="round"/>
<path d="M37.7109 31.185C37.7109 31.185 40.303 33.0092 45.9615 31.185" stroke="#ECECEC" stroke-width="0.62" stroke-linecap="round" stroke-linejoin="round"/>
<path d="M36.7354 40.6639C36.7354 40.6639 41.2525 43.7202 47.0485 40.6639" stroke="#ECECEC" stroke-width="0.62" stroke-linecap="round" stroke-linejoin="round"/>
<path d="M37.0029 52.3799C37.0029 52.3799 40.4888 55.3605 46.8692 52.3799" stroke="#ECECEC" stroke-width="0.62" stroke-linecap="round" stroke-linejoin="round"/>
<path d="M40.1729 61.5007C41.1487 61.7374 42.155 61.8233 43.1568 61.7554" stroke="#ECECEC" stroke-width="0.62" stroke-linecap="round" stroke-linejoin="round"/>
<path d="M40.2412 69.9952C40.7532 70.2317 41.3103 70.3541 41.8741 70.3541C42.438 70.3541 42.9951 70.2317 43.5071 69.9952" stroke="#ECECEC" stroke-width="0.62" stroke-linecap="round" stroke-linejoin="round"/>
<path d="M44.876 78.5655C44.876 78.5655 45.8523 77.8771 45.9692 75.9427" stroke="#ECECEC" stroke-width="0.62" stroke-linecap="round" stroke-linejoin="round"/>
<path d="M51.8408 73.857C52.4138 74.0446 53.0268 74.0731 53.6147 73.9396" stroke="#ECECEC" stroke-width="0.62" stroke-linecap="round" stroke-linejoin="round"/>
<path d="M49.1315 61.2461C49.1315 61.2461 48.499 61.8381 48.444 64.8876C48.389 67.937 52.033 68.6529 52.033 68.6529" stroke="#ECECEC" stroke-width="0.62" stroke-linecap="round" stroke-linejoin="round"/>
<path d="M38.7362 28.3902C37.5537 27.4612 36.1602 26.8393 34.6797 26.5798C32.5208 26.3251 27.8042 25.5197 27.8042 25.5197C27.8042 25.5197 25.3084 22.4772 24.5521 21.8439C24.5521 21.8439 24.2083 20.9077 25.8172 19.8958C27.426 18.8839 27.3779 14.9464 26.0716 12.1516C26.0716 12.1516 25.2672 16.9289 24.889 17.4383C24.889 17.4383 24.0846 17.1423 24.1258 13.9964C24.1671 10.8506 26.7866 8.83368 26.7866 8.83368C25.757 8.91191 24.7693 9.27521 23.934 9.88301C23.0987 10.4908 22.4485 11.3192 22.0563 12.2755C20.5368 15.7174 21.465 20.5359 23.1564 22.0091C23.1564 22.0091 24.9715 25.6918 26.1128 26.8276C27.2542 27.9634 35.0509 28.9616 35.7385 29.175C36.4919 29.5044 37.2144 29.9007 37.8974 30.359" stroke="#ECECEC" stroke-width="0.62" stroke-linecap="round" stroke-linejoin="round"/>
<path d="M24.545 21.5961C24.545 21.5961 23.6856 22.1468 23.1699 21.9747" stroke="#ECECEC" stroke-width="0.62" stroke-linecap="round" stroke-linejoin="round"/>
<path d="M27.831 25.4854C27.6704 25.823 27.4342 26.119 27.1409 26.3506C26.8476 26.5822 26.505 26.7431 26.1396 26.8208" stroke="#ECECEC" stroke-width="0.62" stroke-linecap="round" stroke-linejoin="round"/>
<path d="M34.6794 26.5454C34.6794 26.5454 33.6343 28.108 33.8199 28.8308" stroke="#ECECEC" stroke-width="0.62" stroke-linecap="round" stroke-linejoin="round"/>
<path d="M45.2129 28.3902C46.3944 27.4597 47.7883 26.8376 49.2694 26.5798C51.4214 26.3251 56.1448 25.5197 56.1448 25.5197C56.1448 25.5197 58.6338 22.4772 59.397 21.8439C59.397 21.8439 59.7338 20.9077 58.125 19.8958C56.5161 18.8839 56.5643 14.9464 57.8775 12.1516C57.8775 12.1516 58.675 16.9289 59.06 17.4383C59.06 17.4383 59.8645 17.1423 59.8163 13.9964C59.7682 10.8506 57.1556 8.83368 57.1556 8.83368C58.186 8.91222 59.1744 9.27555 60.0108 9.88323C60.8471 10.4909 61.4986 11.3191 61.8927 12.2755C63.4122 15.7174 62.484 20.5359 60.7927 22.0091C60.7927 22.0091 58.9707 25.6918 57.8293 26.8276C56.688 27.9634 48.8912 28.9616 48.2037 29.175C47.3696 29.5554 46.5672 30.0019 45.8042 30.5104" stroke="#ECECEC" stroke-width="0.62" stroke-linecap="round" stroke-linejoin="round"/>
<path d="M59.3965 21.5961C59.3965 21.5961 60.2559 22.1468 60.7716 21.9747" stroke="#ECECEC" stroke-width="0.62" stroke-linecap="round" stroke-linejoin="round"/>
<path d="M56.1104 25.4854C56.269 25.8231 56.5037 26.1194 56.796 26.3511C57.0882 26.5828 57.4301 26.7436 57.7948 26.8208" stroke="#ECECEC" stroke-width="0.62" stroke-linecap="round" stroke-linejoin="round"/>
<path d="M49.2686 26.5454C49.2686 26.5454 50.3067 28.108 50.128 28.8308" stroke="#ECECEC" stroke-width="0.62" stroke-linecap="round" stroke-linejoin="round"/>
<path d="M40.1319 9.74917C40.496 9.68889 40.8319 9.51557 41.0923 9.25369C41.3526 8.99182 41.5241 8.65464 41.5826 8.28983L41.672 7.73914L41.7614 8.28294C41.8189 8.64816 41.9901 8.98588 42.2506 9.24794C42.5111 9.50999 42.8476 9.683 43.2121 9.74229L43.7553 9.82489L43.2121 9.90749C42.8476 9.96678 42.5111 10.1398 42.2506 10.4018C41.9901 10.6639 41.8189 11.0016 41.7614 11.3668L41.672 11.9106L41.5895 11.3668C41.531 11.002 41.3595 10.6649 41.0992 10.403C40.8388 10.1411 40.5029 9.96777 40.1388 9.90749L39.6094 9.80424L40.1319 9.74917Z" stroke="#ECECEC" stroke-width="0.62" stroke-linecap="round" stroke-linejoin="round"/>
<path d="M21.0451 66.4089C21.409 66.351 21.7454 66.1793 22.006 65.9184C22.2665 65.6575 22.438 65.3208 22.4958 64.9564L22.5783 64.4126L22.6677 64.9564C22.7245 65.3212 22.8957 65.6585 23.1564 65.9196C23.4172 66.1806 23.754 66.352 24.1184 66.4089L24.6616 66.4915L24.1184 66.581C23.754 66.6378 23.4172 66.8092 23.1564 67.0703C22.8957 67.3313 22.7245 67.6686 22.6677 68.0334L22.5783 68.5772L22.4958 68.0334C22.438 67.669 22.2665 67.3323 22.006 67.0714C21.7454 66.8105 21.409 66.6388 21.0451 66.581L20.502 66.4915L21.0451 66.4089Z" stroke="#ECECEC" stroke-width="0.62" stroke-linecap="round" stroke-linejoin="round"/>
<path d="M59.6574 66.4089C60.0221 66.3513 60.3595 66.1799 60.6212 65.9191C60.8829 65.6583 61.0558 65.3213 61.115 64.9564L61.1975 64.4126L61.28 64.9564C61.3392 65.3213 61.512 65.6583 61.7737 65.9191C62.0355 66.1799 62.3728 66.3513 62.7376 66.4089L63.2807 66.4915L62.7376 66.581C62.3728 66.6385 62.0355 66.8099 61.7737 67.0708C61.512 67.3316 61.3392 67.6685 61.28 68.0334L61.1975 68.5772L61.115 68.0334C61.0558 67.6685 60.8829 67.3316 60.6212 67.0708C60.3595 66.8099 60.0221 66.6385 59.6574 66.581L59.1211 66.4915L59.6574 66.4089Z" stroke="#ECECEC" stroke-width="0.62" stroke-linecap="round" stroke-linejoin="round"/>
<path d="M8.66979 35.3428C9.22365 35.2551 9.73554 34.9941 10.132 34.5971C10.5285 34.2001 10.7893 33.6876 10.8768 33.1331L11.0075 32.3071L11.1381 33.1331C11.2256 33.6876 11.4863 34.2001 11.8828 34.5971C12.2793 34.9941 12.7912 35.2551 13.3451 35.3428L14.1702 35.4736L13.3451 35.5975C12.7907 35.6865 12.2786 35.9489 11.8822 36.347C11.4857 36.7452 11.2253 37.2587 11.1381 37.814L11.0075 38.6401L10.8768 37.814C10.7896 37.2587 10.5291 36.7452 10.1327 36.347C9.73629 35.9489 9.22421 35.6865 8.66979 35.5975L7.84473 35.4736L8.66979 35.3428Z" stroke="#ECECEC" stroke-width="0.62" stroke-linecap="round" stroke-linejoin="round"/>
<path d="M70.4589 35.3428C71.0131 35.2561 71.5256 34.9954 71.9223 34.5983C72.319 34.2011 72.5793 33.688 72.6659 33.1331L72.7965 32.3071L72.9272 33.1331C73.0147 33.6876 73.2754 34.2001 73.6719 34.5971C74.0684 34.9941 74.5803 35.2551 75.1342 35.3428L75.9592 35.4736L75.1342 35.5975C74.5797 35.6865 74.0677 35.9489 73.6713 36.347C73.2748 36.7452 73.0144 37.2587 72.9272 37.814L72.7965 38.6401L72.6659 37.814C72.5797 37.2582 72.3195 36.7442 71.9229 36.3459C71.5263 35.9476 71.0137 35.6855 70.4589 35.5975L69.6338 35.4736L70.4589 35.3428Z" stroke="#ECECEC" stroke-width="0.62" stroke-linecap="round" stroke-linejoin="round"/>
</svg>
