<svg width="84" height="84" viewBox="0 0 84 84" fill="none" xmlns="http://www.w3.org/2000/svg">
<path d="M42.0359 83.1155C64.6254 83.1155 82.9379 64.7811 82.9379 42.1644C82.9379 19.5478 64.6254 1.21338 42.0359 1.21338C19.4463 1.21338 1.13379 19.5478 1.13379 42.1644C1.13379 64.7811 19.4463 83.1155 42.0359 83.1155Z" stroke="#ECECEC" stroke-width="0.62" stroke-linecap="round" stroke-linejoin="round"/>
<path d="M54.7767 32.2726C54.7767 32.2726 56.3855 32.548 58.7576 29.6912C61.1296 26.8345 55.8974 25.9258 54.7148 18.1886C53.5322 10.4513 57.9188 8.42751 57.9188 8.42751C53.1816 8.21412 50.0532 10.4926 48.1006 15.3938C46.148 20.295 49.0769 25.7813 49.0769 25.7813L41.5552 25.9396C41.1612 24.6459 41.1374 23.2675 41.4864 21.9608C42.0433 19.5929 45.1785 18.2712 45.1785 18.2712C43.9589 17.753 42.6031 17.6494 41.3191 17.9764C40.035 18.3034 38.8935 19.0429 38.0693 20.0816C35.0785 23.7781 37.7256 30.7513 37.7256 31.0267C37.7256 31.302 18.7493 59.5595 15.9304 63.7655C15.6877 64.122 15.5627 64.5457 15.5728 64.977C15.5769 66.1793 15.9647 67.3488 16.6796 68.3147C17.3945 69.2807 18.3992 69.9925 19.5469 70.3463C19.5469 70.3463 19.8975 72.2324 22.3314 72.3013C24.7653 72.3701 26.5117 71.2549 28.0449 70.9796C29.5781 70.7042 37.8631 71.1861 41.4177 70.9107C44.9723 70.6354 50.9539 70.2774 53.7935 64.0752C56.6331 57.873 58.4619 43.018 58.4619 43.018C58.4619 43.018 63.7904 38.7915 62.5872 33.7801C62.5153 33.4938 62.3398 33.2443 62.0946 33.0802C61.8494 32.9161 61.552 32.8491 61.2602 32.8921C59.6293 33.1282 58.0394 33.5916 56.5368 34.2689C54.1029 35.4529 54.7904 32.3208 54.7904 32.3208" stroke="#ECECEC" stroke-width="0.62" stroke-linecap="round" stroke-linejoin="round"/>
<path d="M62.6556 34.2C62.6556 34.2 57.0453 35.3634 55.9521 38.9704C55.314 37.3868 54.9177 35.716 54.7764 34.0142" stroke="#ECECEC" stroke-width="0.62" stroke-linecap="round" stroke-linejoin="round"/>
<path d="M54.7765 32.2726C51.4556 30.3934 49.0767 25.7813 49.0767 25.7813L48.1142 26.628C47.988 26.7398 47.9073 26.8941 47.8873 27.0616C47.7773 27.9015 47.6329 30.5586 49.8399 31.7839C50.5801 32.2137 51.4037 32.4798 52.2553 32.5641C53.1068 32.6484 53.9665 32.549 54.7765 32.2726Z" stroke="#ECECEC" stroke-width="0.62" stroke-linecap="round" stroke-linejoin="round"/>
<path d="M41.5552 25.9258L37.7256 31.0129" stroke="#ECECEC" stroke-width="0.62" stroke-linecap="round" stroke-linejoin="round"/>
<path d="M57.9188 8.42749C57.9188 8.42749 51.8753 10.0245 51.614 16.1992C51.3528 22.3738 57.9188 30.6067 57.9188 30.6067" stroke="#ECECEC" stroke-width="0.62" stroke-linecap="round" stroke-linejoin="round"/>
<path d="M45.178 18.2574C45.178 18.2574 41.0183 17.927 39.162 21.479C37.3056 25.0309 39.162 29.1061 39.162 29.1061" stroke="#ECECEC" stroke-width="0.62" stroke-linecap="round" stroke-linejoin="round"/>
<path d="M19.5469 70.3325C19.5469 70.3325 22.9846 70.7869 25.1916 69.8851C26.438 69.441 27.4618 68.5271 28.0449 67.3381" stroke="#ECECEC" stroke-width="0.62" stroke-linecap="round" stroke-linejoin="round"/>
<path d="M19.6775 62.6847C19.7245 63.3601 19.5214 64.0291 19.1069 64.564C18.7081 64.9839 17.993 64.8669 17.5943 65.2524C17.504 65.3844 17.4439 65.5348 17.4183 65.6927C17.3927 65.8507 17.4023 66.0124 17.4463 66.1662C17.4903 66.3201 17.5676 66.4623 17.6728 66.5828C17.778 66.7032 17.9085 66.799 18.0549 66.8631C18.7425 67.1936 19.2719 66.2987 19.485 65.7411C19.8368 64.7692 19.9176 63.7198 19.7188 62.7054C19.7155 62.6435 19.7155 62.5814 19.7188 62.5195" stroke="#ECECEC" stroke-width="0.62" stroke-linecap="round" stroke-linejoin="round"/>
<path d="M18.3984 60.062C18.3984 60.062 22.8194 60.8536 24.5863 63.8136C26.3533 66.7736 28.6222 64.7842 29.3992 66.9664C30.1761 69.1485 28.2647 70.9314 28.2647 70.9314" stroke="#ECECEC" stroke-width="0.62" stroke-linecap="round" stroke-linejoin="round"/>
<path d="M23.8096 62.8224C23.8096 62.8224 30.1694 52.2422 32.0601 47.1895C33.9509 42.1369 35.1609 40.9942 36.8729 40.9116C38.1339 40.9761 39.3473 41.4146 40.3588 42.1713L54.7285 32.2726" stroke="#ECECEC" stroke-width="0.62" stroke-linecap="round" stroke-linejoin="round"/>
<path d="M34.0605 42.901C34.4775 43.2895 34.9678 43.5908 35.5027 43.787C36.0375 43.9832 36.6061 44.0705 37.1751 44.0437C38.9009 43.8303 40.4066 42.1713 40.4066 42.1713" stroke="#ECECEC" stroke-width="0.62" stroke-linecap="round" stroke-linejoin="round"/>
<path d="M60.9922 40.2577C60.9922 40.2577 77.0051 46.453 82.6911 46.6939" stroke="#ECECEC" stroke-width="0.62" stroke-linecap="round" stroke-linejoin="round"/>
<path d="M47.832 69.713L56.9351 80.3069" stroke="#ECECEC" stroke-width="0.62" stroke-linecap="round" stroke-linejoin="round"/>
<path d="M38.6669 42.4605C38.6683 42.7633 38.5798 43.0597 38.4126 43.312C38.2454 43.5644 38.0071 43.7613 37.7279 43.8779C37.4487 43.9944 37.1412 44.0252 36.8445 43.9665C36.5478 43.9077 36.2752 43.762 36.0613 43.5479C35.8474 43.3338 35.7019 43.0608 35.6433 42.7638C35.5846 42.4667 35.6154 42.1589 35.7318 41.8793C35.8481 41.5998 36.0448 41.3612 36.2969 41.1938C36.549 41.0264 36.845 40.9378 37.1475 40.9392C37.5505 40.9392 37.9369 41.0994 38.2219 41.3847C38.5068 41.67 38.6669 42.057 38.6669 42.4605Z" stroke="#ECECEC" stroke-width="0.62" stroke-linecap="round" stroke-linejoin="round"/>
<path d="M37.9655 41.9992C37.9669 42.1632 37.9195 42.3238 37.8293 42.4607C37.7392 42.5976 37.6104 42.7046 37.4594 42.7679C37.3084 42.8313 37.1419 42.8483 36.9812 42.8166C36.8205 42.7849 36.6729 42.7061 36.5571 42.5902C36.4413 42.4743 36.3626 42.3264 36.3309 42.1656C36.2993 42.0047 36.3163 41.838 36.3796 41.6868C36.4429 41.5356 36.5497 41.4067 36.6864 41.3164C36.8231 41.2262 36.9836 41.1787 37.1473 41.1801C37.3643 41.1801 37.5724 41.2664 37.7259 41.42C37.8793 41.5736 37.9655 41.782 37.9655 41.9992Z" stroke="#ECECEC" stroke-width="0.62" stroke-linecap="round" stroke-linejoin="round"/>
<path d="M65.7766 29.0166C66.141 28.9597 66.4779 28.7884 66.7387 28.5273C66.9994 28.2662 67.1706 27.9289 67.2274 27.5641L67.3099 27.0203L67.3993 27.5641C67.4561 27.9289 67.6272 28.2662 67.888 28.5273C68.1487 28.7884 68.4856 28.9597 68.85 29.0166L69.3931 29.1061L68.85 29.1887C68.486 29.2466 68.1497 29.4183 67.8891 29.6791C67.6285 29.94 67.4571 30.2768 67.3993 30.6411L67.3099 31.185L67.2274 30.6411C67.1695 30.2768 66.9981 29.94 66.7375 29.6791C66.4769 29.4183 66.1406 29.2466 65.7766 29.1887L65.2197 29.1061L65.7766 29.0166Z" stroke="#ECECEC" stroke-width="0.62" stroke-linecap="round" stroke-linejoin="round"/>
<path d="M11.674 43.2521C12.0423 43.1937 12.3822 43.0183 12.6434 42.7518C12.9046 42.4853 13.0733 42.1419 13.1247 41.7721L13.2141 41.2283L13.2966 41.7721C13.3534 42.1369 13.5246 42.4742 13.7853 42.7352C14.0461 42.9963 14.383 43.1677 14.7473 43.2245L15.2905 43.314L14.7473 43.3966C14.3824 43.4549 14.0454 43.6276 13.7847 43.8898C13.524 44.1521 13.3531 44.4903 13.2966 44.856L13.2141 45.3929L13.1247 44.856C13.0682 44.4903 12.8974 44.1521 12.6367 43.8898C12.376 43.6276 12.0389 43.4549 11.674 43.3966L11.1309 43.314L11.674 43.2521Z" stroke="#ECECEC" stroke-width="0.62" stroke-linecap="round" stroke-linejoin="round"/>
<path d="M21.4579 20.1229C22.0117 20.0352 22.5236 19.7742 22.9201 19.3772C23.3166 18.9802 23.5773 18.4677 23.6649 17.9132L23.7955 17.0872L23.9262 17.9132C24.0137 18.4677 24.2744 18.9802 24.6709 19.3772C25.0674 19.7742 25.5793 20.0352 26.1332 20.1229L26.9582 20.2537L26.1332 20.3844C25.5793 20.4721 25.0674 20.7331 24.6709 21.1301C24.2744 21.5271 24.0137 22.0396 23.9262 22.5941L23.7955 23.4202L23.6649 22.5941C23.5773 22.0396 23.3166 21.5271 22.9201 21.1301C22.5236 20.7331 22.0117 20.4721 21.4579 20.3844L20.6328 20.2537L21.4579 20.1229Z" stroke="#ECECEC" stroke-width="0.62" stroke-linecap="round" stroke-linejoin="round"/>
<path d="M55.9521 38.9429C56.439 40.4874 57.3068 41.8843 58.4754 43.0042" stroke="#ECECEC" stroke-width="0.62" stroke-linecap="round" stroke-linejoin="round"/>
<path d="M54.1094 63.3593C54.1094 63.3593 63.2331 73.5472 65.5364 75.688" stroke="#ECECEC" stroke-width="0.62" stroke-linecap="round" stroke-linejoin="round"/>
</svg>
