<svg width="84" height="84" viewBox="0 0 84 84" fill="none" xmlns="http://www.w3.org/2000/svg">
<path d="M42.0359 83.033C64.6254 83.033 82.9379 64.6986 82.9379 42.0819C82.9379 19.4653 64.6254 1.13086 42.0359 1.13086C19.4463 1.13086 1.13379 19.4653 1.13379 42.0819C1.13379 64.6986 19.4463 83.033 42.0359 83.033Z" stroke="#ECECEC" stroke-width="0.62" stroke-linecap="round" stroke-linejoin="round"/>
<mask id="mask0_2_5378" style="mask-type:luminance" maskUnits="userSpaceOnUse" x="1" y="1" width="82" height="83">
<path d="M42.0427 83.033C64.6323 83.033 82.9448 64.6986 82.9448 42.0819C82.9448 19.4653 64.6323 1.13086 42.0427 1.13086C19.4531 1.13086 1.14062 19.4653 1.14062 42.0819C1.14062 64.6986 19.4531 83.033 42.0427 83.033Z" fill="white"/>
</mask>
<g mask="url(#mask0_2_5378)">
<path d="M55.7384 81.0367C51.5908 83.9546 47.2492 86.5857 42.7438 88.9117C42.7438 88.9117 48.2854 62.6711 42.2762 61.4802C39.3473 60.9088 33.9913 64.8669 30.4986 64.7637C27.0058 64.6604 26.9302 59.2567 26.4696 58.6303C26.0089 58.0039 24.5788 58.3206 24.0975 57.4463C23.6162 56.5721 24.957 55.2023 24.957 55.2023C24.3493 55.0021 23.7931 54.6708 23.3275 54.2317C22.2962 53.3781 22.8049 52.435 22.9975 51.2648C23.0718 50.9606 23.0638 50.6421 22.9744 50.3421C22.885 50.042 22.7173 49.7713 22.4887 49.5576C20.9211 49.5989 18.6797 48.1809 18.6934 47.2447C18.7072 46.3085 23.7744 38.172 23.8913 37.6075C24.0082 37.0431 23.1143 34.9367 22.9425 33.1607C22.8393 32.1557 23.2587 27.8189 23.63 24.267C23.63 24.267 27.9203 19.7788 40.5161 31.0336C53.1119 42.2885 55.7384 81.0367 55.7384 81.0367Z" stroke="#ECECEC" stroke-width="0.62" stroke-linecap="round" stroke-linejoin="round"/>
<path d="M25.3423 47.582C25.3423 47.582 25.583 48.8968 25.0054 49.2823C24.8402 49.3915 24.6465 49.4498 24.4485 49.4498C24.2505 49.4498 24.0568 49.3915 23.8916 49.2823" stroke="#ECECEC" stroke-width="0.62" stroke-linecap="round" stroke-linejoin="round"/>
<path d="M25.5969 39.1151C25.4931 38.6012 25.5009 38.071 25.6195 37.5603C25.7381 37.0497 25.9648 36.5704 26.2844 36.1551" stroke="#ECECEC" stroke-width="0.62" stroke-linecap="round" stroke-linejoin="round"/>
<path d="M24.8057 39.3009C24.8057 39.3009 27.7896 39.1288 29.7766 37.5662" stroke="#ECECEC" stroke-width="0.62" stroke-linecap="round" stroke-linejoin="round"/>
<path d="M23.0186 33.732C23.3777 33.2625 23.8288 32.8713 24.3443 32.5825C24.8598 32.2937 25.4287 32.1133 26.0163 32.0524C27.8039 32.0524 31.2003 33.0712 31.2003 33.0712" stroke="#ECECEC" stroke-width="0.62" stroke-linecap="round" stroke-linejoin="round"/>
<path d="M22.7021 52.8549C22.7021 52.8549 22.8671 52.2767 24.8817 53.2817C25.7246 53.7674 26.6287 54.1379 27.57 54.3831C27.57 54.3831 26.6486 57.9626 25.3561 58.1485" stroke="#ECECEC" stroke-width="0.62" stroke-linecap="round" stroke-linejoin="round"/>
<path d="M24.957 55.2366C24.957 55.2366 27.274 55.0577 28.491 53.9494" stroke="#ECECEC" stroke-width="0.62" stroke-linecap="round" stroke-linejoin="round"/>
</g>
<path d="M22.4958 6.10773C22.4958 6.10773 15.8748 18.4984 23.6372 24.2462C23.6372 24.2462 32.2728 16.2061 51.0015 26.8965C69.7302 37.5868 71.7172 70.2637 71.7172 70.2637" stroke="#ECECEC" stroke-width="0.62" stroke-linecap="round" stroke-linejoin="round"/>
<path d="M82.8284 39.0255C82.8284 39.0255 68.5274 11.8212 46.3197 10.0177C24.112 8.21415 20.5986 20.3432 20.5986 20.3432" stroke="#ECECEC" stroke-width="0.62" stroke-linecap="round" stroke-linejoin="round"/>
<path d="M41.5479 61.4319C41.5479 61.4319 46.5944 59.828 47.3026 56.868" stroke="#ECECEC" stroke-width="0.62" stroke-linecap="round" stroke-linejoin="round"/>
<path d="M16.0676 61.3425C16.4319 61.2856 16.7688 61.1142 17.0296 60.8532C17.2903 60.5921 17.4615 60.2548 17.5183 59.89L17.6077 59.3462L17.6902 59.89C17.7494 60.2549 17.9222 60.5919 18.1839 60.8527C18.4457 61.1135 18.783 61.2849 19.1478 61.3425L19.6841 61.4319L19.1478 61.5145C18.7834 61.5731 18.4466 61.7448 18.1851 62.0055C17.9235 62.2661 17.7504 62.6025 17.6902 62.967L17.6077 63.5108L17.5183 62.967C17.4605 62.6026 17.289 62.2659 17.0284 62.005C16.7679 61.7441 16.4315 61.5724 16.0676 61.5145L15.5244 61.4319L16.0676 61.3425Z" stroke="#ECECEC" stroke-width="0.62" stroke-linecap="round" stroke-linejoin="round"/>
<path d="M10.0243 34.4686C10.5785 34.3819 11.091 34.1212 11.4877 33.7241C11.8844 33.3269 12.1447 32.8138 12.2313 32.2589L12.3619 31.4329L12.4926 32.2589C12.5801 32.8134 12.8408 33.3259 13.2373 33.7229C13.6338 34.1199 14.1457 34.3809 14.6996 34.4686L15.5246 34.5994L14.6996 34.7233C14.1452 34.8123 13.6331 35.0747 13.2367 35.4728C12.8402 35.871 12.5798 36.3845 12.4926 36.9398L12.3619 37.7659L12.2313 36.9398C12.1451 36.384 11.8849 35.87 11.4883 35.4717C11.0917 35.0734 10.5791 34.8113 10.0243 34.7233L9.19922 34.5994L10.0243 34.4686Z" stroke="#ECECEC" stroke-width="0.62" stroke-linecap="round" stroke-linejoin="round"/>
</svg>
