<svg width="210" height="191" viewBox="0 0 210 191" fill="none" xmlns="http://www.w3.org/2000/svg">
<g clip-path="url(#clip0_2_4890)">
<path d="M122.401 190.317L115.1 186.225H94.9004L87.5986 190.317H122.401Z" stroke="#ECECEC" stroke-width="1.78" stroke-linecap="round" stroke-linejoin="round"/>
<path d="M83.2402 190.317H126.759" stroke="#ECECEC" stroke-width="1.78" stroke-linecap="round" stroke-linejoin="round"/>
<path d="M108.905 176.384H101.096V181.09H108.905V176.384Z" stroke="#ECECEC" stroke-width="1.78" stroke-linecap="round" stroke-linejoin="round"/>
<path d="M112.624 186.225C112.624 185.888 112.558 185.553 112.428 185.241C112.299 184.929 112.109 184.646 111.87 184.407C111.631 184.168 111.347 183.979 111.035 183.85C110.722 183.72 110.388 183.654 110.049 183.654H99.9498C99.6117 183.654 99.2769 183.72 98.9645 183.85C98.6521 183.979 98.3683 184.168 98.1292 184.407C97.8901 184.646 97.7004 184.929 97.571 185.241C97.4416 185.553 97.375 185.888 97.375 186.225H112.624Z" stroke="#ECECEC" stroke-width="1.78" stroke-linecap="round" stroke-linejoin="round"/>
<path d="M109.758 181.09H99.9814V183.654H109.758V181.09Z" stroke="#ECECEC" stroke-width="1.78" stroke-linecap="round" stroke-linejoin="round"/>
<path d="M112.624 171.249C112.624 171.931 112.353 172.585 111.87 173.067C111.387 173.55 110.732 173.821 110.049 173.821H99.9498C99.6117 173.821 99.2769 173.754 98.9645 173.625C98.6521 173.496 98.3683 173.306 98.1292 173.067C97.8901 172.829 97.7004 172.545 97.571 172.233C97.4416 171.921 97.375 171.587 97.375 171.249H112.624Z" stroke="#ECECEC" stroke-width="1.78" stroke-linecap="round" stroke-linejoin="round"/>
<path d="M109.758 173.821H99.9814V176.384H109.758V173.821Z" stroke="#ECECEC" stroke-width="1.78" stroke-linecap="round" stroke-linejoin="round"/>
<path d="M108.905 124.601H101.096V129.306H108.905V124.601Z" stroke="#ECECEC" stroke-width="1.78" stroke-linecap="round" stroke-linejoin="round"/>
<path d="M112.624 134.434C112.622 133.753 112.35 133.101 111.867 132.62C111.385 132.14 110.731 131.87 110.049 131.87H99.9498C99.2683 131.87 98.6145 132.14 98.1318 132.62C97.6492 133.101 97.377 133.753 97.375 134.434H112.624Z" stroke="#ECECEC" stroke-width="1.78" stroke-linecap="round" stroke-linejoin="round"/>
<path d="M109.758 129.306H99.9814V131.87H109.758V129.306Z" stroke="#ECECEC" stroke-width="1.78" stroke-linecap="round" stroke-linejoin="round"/>
<path d="M112.624 119.465C112.622 120.146 112.35 120.798 111.867 121.279C111.385 121.759 110.731 122.029 110.049 122.029H99.9498C99.2683 122.029 98.6145 121.759 98.1318 121.279C97.6492 120.798 97.377 120.146 97.375 119.465H112.624Z" stroke="#ECECEC" stroke-width="1.78" stroke-linecap="round" stroke-linejoin="round"/>
<path d="M109.758 122.029H99.9814V124.593H109.758V122.029Z" stroke="#ECECEC" stroke-width="1.78" stroke-linecap="round" stroke-linejoin="round"/>
<path d="M108.905 72.8091H101.096V77.5146H108.905V72.8091Z" stroke="#ECECEC" stroke-width="1.78" stroke-linecap="round" stroke-linejoin="round"/>
<path d="M112.624 82.65C112.624 81.968 112.353 81.3139 111.87 80.8316C111.387 80.3494 110.732 80.0784 110.049 80.0784H99.9498C99.6117 80.0784 99.2769 80.145 98.9645 80.2742C98.6521 80.4034 98.3683 80.5928 98.1292 80.8316C97.8901 81.0704 97.7004 81.3539 97.571 81.6659C97.4416 81.9779 97.375 82.3123 97.375 82.65H112.624Z" stroke="#ECECEC" stroke-width="1.78" stroke-linecap="round" stroke-linejoin="round"/>
<path d="M109.758 77.5146H99.9814V80.0784H109.758V77.5146Z" stroke="#ECECEC" stroke-width="1.78" stroke-linecap="round" stroke-linejoin="round"/>
<path d="M112.624 67.6736C112.624 68.011 112.558 68.345 112.428 68.6566C112.299 68.9681 112.109 69.2511 111.87 69.4893C111.63 69.7275 111.347 69.9162 111.034 70.0446C110.722 70.173 110.387 70.2385 110.049 70.2375H99.9498C99.6121 70.2385 99.2774 70.173 98.965 70.0446C98.6527 69.9162 98.3688 69.7275 98.1296 69.4893C97.8904 69.2511 97.7006 68.9681 97.5711 68.6566C97.4416 68.345 97.375 68.011 97.375 67.6736H112.624Z" stroke="#ECECEC" stroke-width="1.78" stroke-linecap="round" stroke-linejoin="round"/>
<path d="M109.758 70.2452H99.9814V72.8091H109.758V70.2452Z" stroke="#ECECEC" stroke-width="1.78" stroke-linecap="round" stroke-linejoin="round"/>
<path d="M108.905 134.442H101.096V171.257H108.905V134.442Z" stroke="#ECECEC" stroke-width="1.78" stroke-linecap="round" stroke-linejoin="round"/>
<path d="M108.905 82.65H101.096V119.465H108.905V82.65Z" stroke="#ECECEC" stroke-width="1.78" stroke-linecap="round" stroke-linejoin="round"/>
<path d="M115.899 64.3652H94.1016V67.6813H115.899V64.3652Z" stroke="#ECECEC" stroke-width="1.78" stroke-linecap="round" stroke-linejoin="round"/>
<path d="M101.388 61.3484C100.673 61.3484 99.975 61.1369 99.3809 60.7404C98.7868 60.344 98.3238 59.7805 98.0504 59.1213C97.777 58.462 97.7054 57.7366 97.8448 57.0368C97.9842 56.3369 98.3283 55.6941 98.8335 55.1895C99.3387 54.6849 99.9823 54.3413 100.683 54.2021C101.384 54.0629 102.11 54.1343 102.77 54.4074C103.43 54.6805 103.995 55.1429 104.392 55.7362C104.788 56.3295 105 57.0271 105 57.7406" stroke="#ECECEC" stroke-width="1.78" stroke-linecap="round" stroke-linejoin="round"/>
<path d="M105 57.7406C105 59.4955 104.302 61.1786 103.059 62.4195C101.817 63.6604 100.132 64.3575 98.3744 64.3575H95.1309C95.6355 64.3575 96.1353 64.2583 96.6016 64.0654C97.0678 63.8725 97.4915 63.5898 97.8483 63.2334C98.2052 62.877 98.4883 62.4539 98.6814 61.9882C98.8745 61.5225 98.9739 61.0235 98.9739 60.5194" stroke="#ECECEC" stroke-width="1.78" stroke-linecap="round" stroke-linejoin="round"/>
<path d="M108.612 61.3484C109.327 61.3484 110.025 61.1369 110.619 60.7404C111.214 60.344 111.677 59.7805 111.95 59.1213C112.223 58.462 112.295 57.7366 112.156 57.0368C112.016 56.3369 111.672 55.6941 111.167 55.1895C110.662 54.6849 110.018 54.3413 109.317 54.2021C108.616 54.0629 107.89 54.1343 107.23 54.4074C106.57 54.6805 106.006 55.1429 105.609 55.7362C105.212 56.3295 105 57.0271 105 57.7406" stroke="#ECECEC" stroke-width="1.78" stroke-linecap="round" stroke-linejoin="round"/>
<path d="M105 57.7406C105 59.4955 105.698 61.1786 106.941 62.4195C108.183 63.6604 109.868 64.3575 111.625 64.3575H114.869C113.85 64.3575 112.872 63.9532 112.152 63.2334C111.431 62.5136 111.026 61.5374 111.026 60.5194" stroke="#ECECEC" stroke-width="1.78" stroke-linecap="round" stroke-linejoin="round"/>
<path d="M109.227 34.7733C109.7 35.5273 109.962 36.3941 109.986 37.2834C110.01 38.1728 109.795 39.0525 109.364 39.8309C108.932 40.6093 108.3 41.2581 107.532 41.7098C106.765 42.1616 105.89 42.3999 105 42.3999C104.109 42.3999 103.234 42.1616 102.467 41.7098C101.699 41.2581 101.067 40.6093 100.635 39.8309C100.204 39.0525 99.989 38.1728 100.013 37.2834C100.037 36.3941 100.299 35.5273 100.772 34.7733C99.6295 35.6544 98.7914 36.8704 98.3755 38.251C97.9595 39.6316 97.9864 41.1076 98.4524 42.4722C98.9185 43.8367 99.8003 45.0215 100.974 45.8604C102.148 46.6994 103.556 47.1504 105 47.1504C106.443 47.1504 107.851 46.6994 109.025 45.8604C110.199 45.0215 111.081 43.8367 111.547 42.4722C112.013 41.1076 112.04 39.6316 111.624 38.251C111.208 36.8704 110.37 35.6544 109.227 34.7733Z" stroke="#ECECEC" stroke-width="1.78" stroke-linecap="round" stroke-linejoin="round"/>
<path d="M101.295 46.0804C102.362 47.1495 102.961 48.5973 102.961 50.1066C102.961 51.6159 102.362 53.0637 101.295 54.1328" stroke="#ECECEC" stroke-width="1.78" stroke-linecap="round" stroke-linejoin="round"/>
<path d="M108.705 46.0804C107.638 47.1495 107.039 48.5973 107.039 50.1066C107.039 51.6159 107.638 53.0637 108.705 54.1328" stroke="#ECECEC" stroke-width="1.78" stroke-linecap="round" stroke-linejoin="round"/>
<path d="M106.338 34.7733C106.338 35.0375 106.259 35.2957 106.112 35.5154C105.966 35.735 105.757 35.9062 105.512 36.0073C105.268 36.1084 104.999 36.1349 104.74 36.0833C104.48 36.0318 104.242 35.9046 104.055 35.7178C103.868 35.531 103.74 35.293 103.689 35.0339C103.637 34.7748 103.664 34.5063 103.765 34.2622C103.866 34.0181 104.038 33.8095 104.257 33.6628C104.477 33.516 104.736 33.4377 105 33.4377C105.176 33.4367 105.351 33.4705 105.513 33.5373C105.676 33.604 105.824 33.7024 105.948 33.8266C106.073 33.9508 106.171 34.0985 106.238 34.261C106.305 34.4235 106.339 34.5976 106.338 34.7733Z" stroke="#ECECEC" stroke-width="1.78" stroke-linecap="round" stroke-linejoin="round"/>
<path d="M130.749 49.1356C130.411 49.1356 130.077 49.2021 129.765 49.3315C129.453 49.4608 129.169 49.6503 128.931 49.8892C128.692 50.1281 128.503 50.4117 128.375 50.7236C128.246 51.0356 128.181 51.3698 128.182 51.7071V61.7937C128.181 62.1307 128.246 62.4645 128.375 62.776C128.504 63.0875 128.693 63.3706 128.931 63.6088C129.17 63.8471 129.453 64.036 129.765 64.1644C130.077 64.2929 130.411 64.3586 130.749 64.3575V49.1356Z" stroke="#ECECEC" stroke-width="1.78" stroke-linecap="round" stroke-linejoin="round"/>
<path d="M125.63 51.9988V61.7629H128.197V51.9988H125.63Z" stroke="#ECECEC" stroke-width="1.78" stroke-linecap="round" stroke-linejoin="round"/>
<path d="M115.776 49.1356C116.459 49.1356 117.114 49.4065 117.597 49.8888C118.08 50.371 118.351 51.0251 118.351 51.7071V61.7937C118.351 62.131 118.285 62.465 118.155 62.7766C118.026 63.0882 117.836 63.3711 117.597 63.6093C117.357 63.8475 117.073 64.0362 116.761 64.1646C116.449 64.293 116.114 64.3585 115.776 64.3575V49.1356Z" stroke="#ECECEC" stroke-width="1.78" stroke-linecap="round" stroke-linejoin="round"/>
<path d="M118.343 51.9988V61.763H120.91V51.9988H118.343Z" stroke="#ECECEC" stroke-width="1.78" stroke-linecap="round" stroke-linejoin="round"/>
<path d="M115.415 50.1258C114.02 50.1258 112.683 49.5726 111.697 48.5879C110.711 47.6033 110.157 46.2678 110.157 44.8752" stroke="#ECECEC" stroke-width="1.78" stroke-linecap="round" stroke-linejoin="round"/>
<path d="M130.748 50.8013C133.491 54.4601 136.929 57.5435 140.865 59.8755C144.801 62.2075 149.158 63.7424 153.688 64.3924C158.218 65.0425 162.832 64.7951 167.266 63.6643C171.701 62.5335 175.868 60.5415 179.532 57.802C181.277 56.499 183.263 55.5522 185.375 55.0155C187.487 54.4789 189.684 54.3631 191.841 54.6746C193.998 54.9861 196.072 55.7188 197.946 56.831C199.819 57.9432 201.455 59.413 202.759 61.1565C199.678 58.0825 195.501 56.3557 191.146 56.3557C186.79 56.3557 182.613 58.0825 179.532 61.1565C176.33 64.3563 172.528 66.8946 168.343 68.6264C164.159 70.3582 159.673 71.2495 155.144 71.2495C150.614 71.2495 146.129 70.3582 141.944 68.6264C137.76 66.8946 133.958 64.3563 130.756 61.1565L130.748 50.8013Z" stroke="#ECECEC" stroke-width="1.78" stroke-linecap="round" stroke-linejoin="round"/>
<path d="M176.581 64.3652V138.786" stroke="#ECECEC" stroke-width="1.02" stroke-linecap="round" stroke-linejoin="round"/>
<path d="M176.581 64.3652L204.289 138.786" stroke="#ECECEC" stroke-width="1.02" stroke-linecap="round" stroke-linejoin="round"/>
<path d="M176.58 64.3652L148.864 138.786" stroke="#ECECEC" stroke-width="1.02" stroke-linecap="round" stroke-linejoin="round"/>
<path d="M208.163 139.17C208.163 144.543 203.389 148.896 197.51 148.896H155.651C149.771 148.896 144.998 144.543 144.998 139.17H208.163Z" stroke="#ECECEC" stroke-width="1.78" stroke-linecap="round" stroke-linejoin="round"/>
<path d="M143.846 139.162H209.308" stroke="#ECECEC" stroke-width="1.78" stroke-linecap="round" stroke-linejoin="round"/>
<path d="M130.525 56.2668C133.572 59.5471 137.235 62.1961 141.306 64.0624C145.377 65.9288 149.777 66.9759 154.253 67.1442C158.73 67.3124 163.196 66.5984 167.396 65.0428C171.596 63.4873 175.448 61.1208 178.733 58.0784" stroke="#ECECEC" stroke-width="1.02" stroke-linecap="round" stroke-linejoin="round"/>
<path d="M120.918 53.9179V59.5906H125.63V53.9179H120.918Z" stroke="#ECECEC" stroke-width="1.78" stroke-linecap="round" stroke-linejoin="round"/>
<path d="M187.825 125.284C186.458 126.65 184.759 127.638 182.894 128.15C181.029 128.663 179.063 128.683 177.189 128.208C175.314 127.733 173.595 126.78 172.2 125.441C170.806 124.103 169.783 122.426 169.233 120.574C168.683 118.722 168.624 116.76 169.062 114.878C169.501 112.997 170.421 111.262 171.733 109.843C173.045 108.424 174.704 107.369 176.546 106.783C178.389 106.197 180.353 106.1 182.245 106.5C178.959 105.186 175.319 105.045 171.94 106.101C168.561 107.157 165.651 109.345 163.701 112.296C161.751 115.247 160.881 118.78 161.237 122.298C161.594 125.815 163.155 129.102 165.657 131.604C168.159 134.105 171.449 135.667 174.971 136.026C178.493 136.385 182.031 135.519 184.987 133.574C187.944 131.629 190.137 128.725 191.198 125.351C192.258 121.978 192.12 118.343 190.807 115.059C191.205 116.876 191.14 118.764 190.619 120.55C190.098 122.336 189.138 123.964 187.825 125.284Z" stroke="#ECECEC" stroke-width="1.78" stroke-linecap="round" stroke-linejoin="round"/>
<path d="M84.3623 53.9102V59.5829H89.0739V53.9102H84.3623Z" stroke="#ECECEC" stroke-width="1.78" stroke-linecap="round" stroke-linejoin="round"/>
<path d="M79.252 49.1356C79.5897 49.1356 79.9242 49.2021 80.2361 49.3315C80.5481 49.4608 80.8315 49.6503 81.0699 49.8892C81.3084 50.1281 81.4973 50.4117 81.6259 50.7236C81.7545 51.0356 81.8201 51.3698 81.8191 51.7071V61.7937C81.8202 62.1307 81.7544 62.4645 81.6258 62.776C81.4971 63.0875 81.3081 63.3706 81.0695 63.6088C80.8309 63.8471 80.5475 64.036 80.2356 64.1644C79.9236 64.2929 79.5894 64.3586 79.252 64.3575V49.1356Z" stroke="#ECECEC" stroke-width="1.78" stroke-linecap="round" stroke-linejoin="round"/>
<path d="M81.7959 51.9911V61.7553H84.3631V51.9911H81.7959Z" stroke="#ECECEC" stroke-width="1.78" stroke-linecap="round" stroke-linejoin="round"/>
<path d="M94.2242 49.1356C93.5414 49.1356 92.8865 49.4065 92.4036 49.8888C91.9207 50.371 91.6494 51.0251 91.6494 51.7071V61.7937C91.6494 62.131 91.7161 62.465 91.8456 62.7766C91.975 63.0882 92.1648 63.3711 92.404 63.6093C92.6432 63.8475 92.9272 64.0362 93.2395 64.1646C93.5519 64.293 93.8865 64.3585 94.2242 64.3575V49.1356Z" stroke="#ECECEC" stroke-width="1.78" stroke-linecap="round" stroke-linejoin="round"/>
<path d="M89.082 51.9988V61.763H91.6492V51.9988H89.082Z" stroke="#ECECEC" stroke-width="1.78" stroke-linecap="round" stroke-linejoin="round"/>
<path d="M94.624 50.1258C95.3144 50.1258 95.9981 49.99 96.6359 49.7261C97.2738 49.4622 97.8533 49.0755 98.3415 48.5879C98.8297 48.1004 99.2169 47.5216 99.4811 46.8845C99.7453 46.2475 99.8813 45.5648 99.8813 44.8752" stroke="#ECECEC" stroke-width="1.78" stroke-linecap="round" stroke-linejoin="round"/>
<path d="M79.2514 50.8013C76.5099 54.4618 73.0728 57.5468 69.1368 59.8799C65.2007 62.213 60.8428 63.7486 56.3123 64.3987C51.7817 65.0489 47.1672 64.8009 42.7326 63.669C38.2981 62.5371 34.1304 60.5435 30.4677 57.802C28.7221 56.499 26.7365 55.5522 24.6244 55.0155C22.5124 54.4789 20.3152 54.3631 18.1583 54.6746C16.0014 54.9861 13.927 55.7188 12.0537 56.831C10.1804 57.9432 8.54476 59.413 7.24023 61.1565C10.3215 58.0825 14.4987 56.3557 18.8539 56.3557C23.2092 56.3557 27.3864 58.0825 30.4677 61.1565C33.6691 64.356 37.4703 66.8942 41.6543 68.6259C45.8382 70.3576 50.3229 71.2489 54.8519 71.2489C59.3809 71.2489 63.8655 70.3576 68.0495 68.6259C72.2334 66.8942 76.0347 64.356 79.236 61.1565L79.2514 50.8013Z" stroke="#ECECEC" stroke-width="1.78" stroke-linecap="round" stroke-linejoin="round"/>
<path d="M33.4189 64.3652V138.786" stroke="#ECECEC" stroke-width="1.02" stroke-linecap="round" stroke-linejoin="round"/>
<path d="M33.4192 64.3652L5.70312 138.786" stroke="#ECECEC" stroke-width="1.02" stroke-linecap="round" stroke-linejoin="round"/>
<path d="M33.4189 64.3652L61.1274 138.786" stroke="#ECECEC" stroke-width="1.02" stroke-linecap="round" stroke-linejoin="round"/>
<path d="M1.83691 139.17C1.83691 144.543 6.60229 148.896 12.4899 148.896H54.3484C60.2283 148.896 65.0014 144.543 65.0014 139.17H1.83691Z" stroke="#ECECEC" stroke-width="1.78" stroke-linecap="round" stroke-linejoin="round"/>
<path d="M66.1462 139.162H0.683594" stroke="#ECECEC" stroke-width="1.78" stroke-linecap="round" stroke-linejoin="round"/>
<path d="M33.4193 112.441L37.7235 104.696L37.5775 113.554L45.1791 109.002L40.6212 116.594L49.491 116.448L41.7357 120.747L49.491 125.046L40.6212 124.9L45.1791 132.499L37.5775 127.94L37.7235 136.798L33.4193 129.053L29.1151 136.798L29.2611 127.94L21.6519 132.499L26.2097 124.9L17.3477 125.046L25.1029 120.747L17.3477 116.448L26.2097 116.594L21.6519 109.002L29.2611 113.554L29.1151 104.696L33.4193 112.441Z" stroke="#ECECEC" stroke-width="1.78" stroke-linecap="round" stroke-linejoin="round"/>
<path d="M79.4672 56.2668C76.4217 59.5469 72.759 62.1957 68.6884 64.0619C64.6178 65.9281 60.219 66.9753 55.7431 67.1435C51.2672 67.3117 46.802 66.5978 42.6025 65.0424C38.4029 63.4869 34.5513 61.1206 31.2676 58.0784" stroke="#ECECEC" stroke-width="1.02" stroke-linecap="round" stroke-linejoin="round"/>
<path d="M110.203 13.894C110.203 14.9206 109.898 15.9242 109.327 16.7777C108.756 17.6312 107.944 18.2963 106.994 18.6889C106.044 19.0814 104.999 19.1837 103.991 18.9828C102.983 18.782 102.057 18.287 101.331 17.5605C100.604 16.8341 100.11 15.9087 99.9104 14.9016C99.7108 13.8945 99.8148 12.8509 100.209 11.9029C100.604 10.9548 101.271 10.1449 102.126 9.57565C102.982 9.00638 103.987 8.70334 105.015 8.70485C106.392 8.70689 107.711 9.2545 108.684 10.2274C109.657 11.2004 110.203 12.5191 110.203 13.894Z" stroke="#ECECEC" stroke-width="1.78" stroke-linecap="round" stroke-linejoin="round"/>
<path d="M95.2773 13.9017C100.658 6.99305 109.374 6.99305 114.746 13.9017" stroke="#ECECEC" stroke-width="1.78" stroke-linecap="round" stroke-linejoin="round"/>
<path d="M95.2773 13.9017C100.658 20.8103 109.374 20.8103 114.746 13.9017" stroke="#ECECEC" stroke-width="1.78" stroke-linecap="round" stroke-linejoin="round"/>
<path d="M110.203 13.894C110.203 14.9206 109.898 15.9242 109.327 16.7777C108.756 17.6312 107.944 18.2963 106.994 18.6889C106.044 19.0814 104.999 19.1837 103.991 18.9828C102.983 18.782 102.057 18.287 101.331 17.5605C100.604 16.8341 100.11 15.9087 99.9104 14.9016C99.7108 13.8945 99.8148 12.8509 100.209 11.9029C100.604 10.9548 101.271 10.1449 102.126 9.57565C102.982 9.00638 103.987 8.70334 105.015 8.70485C106.392 8.70689 107.711 9.2545 108.684 10.2274C109.657 11.2004 110.203 12.5191 110.203 13.894Z" stroke="#ECECEC" stroke-width="1.78" stroke-linecap="round" stroke-linejoin="round"/>
<path d="M91.7871 13.894H87.3906" stroke="#ECECEC" stroke-width="1.02" stroke-linecap="round" stroke-linejoin="round"/>
<path d="M122.632 13.894H118.235" stroke="#ECECEC" stroke-width="1.02" stroke-linecap="round" stroke-linejoin="round"/>
<path d="M97.9361 21.0406L94.8232 24.1494" stroke="#ECECEC" stroke-width="1.02" stroke-linecap="round" stroke-linejoin="round"/>
<path d="M112.087 20.8793L115.192 23.9882" stroke="#ECECEC" stroke-width="1.02" stroke-linecap="round" stroke-linejoin="round"/>
<path d="M105.092 23.0057V27.4041" stroke="#ECECEC" stroke-width="1.02" stroke-linecap="round" stroke-linejoin="round"/>
<path d="M97.9361 6.75508L94.8232 3.64621" stroke="#ECECEC" stroke-width="1.02" stroke-linecap="round" stroke-linejoin="round"/>
<path d="M112.087 6.91629L115.192 3.80741" stroke="#ECECEC" stroke-width="1.02" stroke-linecap="round" stroke-linejoin="round"/>
<path d="M105.092 4.78229V0.391487" stroke="#ECECEC" stroke-width="1.02" stroke-linecap="round" stroke-linejoin="round"/>
<path d="M72.7646 160.786V174.105" stroke="#FE5F55" stroke-width="1.02" stroke-linecap="round" stroke-linejoin="round"/>
<path d="M66.1006 167.442H79.436" stroke="#FE5F55" stroke-width="1.02" stroke-linecap="round" stroke-linejoin="round"/>
<path d="M69.0439 163.726L76.4918 171.165" stroke="#FE5F55" stroke-width="1.02" stroke-linecap="round" stroke-linejoin="round"/>
<path d="M69.0439 171.165L76.4918 163.726" stroke="#FE5F55" stroke-width="1.02" stroke-linecap="round" stroke-linejoin="round"/>
<path d="M182.775 173.414C181.704 173.416 180.677 173.842 179.919 174.599C179.161 175.355 178.735 176.381 178.732 177.451C178.732 176.382 178.308 175.356 177.551 174.599C176.795 173.842 175.768 173.416 174.697 173.414C175.767 173.414 176.794 172.989 177.551 172.233C178.307 171.478 178.732 170.453 178.732 169.384C178.735 170.453 179.161 171.478 179.919 172.234C180.677 172.989 181.704 173.414 182.775 173.414Z" stroke="#FE5F55" stroke-width="1.02" stroke-linecap="round" stroke-linejoin="round"/>
<path d="M19.4609 21.7237C18.9304 21.7237 18.405 21.8282 17.9149 22.0312C17.4249 22.2342 16.9797 22.5318 16.6049 22.9068C16.2301 23.2819 15.933 23.727 15.7306 24.2168C15.5283 24.7067 15.4247 25.2316 15.4257 25.7614C15.4257 24.6906 14.9997 23.6636 14.2416 22.9063C13.4834 22.1491 12.4551 21.7237 11.3828 21.7237C12.4551 21.7237 13.4834 21.2983 14.2416 20.5411C14.9997 19.7839 15.4257 18.7569 15.4257 17.686C15.4247 18.2159 15.5283 18.7408 15.7306 19.2306C15.933 19.7205 16.2301 20.1656 16.6049 20.5406C16.9797 20.9157 17.4249 21.2132 17.9149 21.4162C18.405 21.6193 18.9304 21.7237 19.4609 21.7237Z" stroke="#FE5F55" stroke-width="1.02" stroke-linecap="round" stroke-linejoin="round"/>
</g>
<defs>
<clipPath id="clip0_2_4890">
<rect width="210" height="191" fill="white"/>
</clipPath>
</defs>
</svg>
